<?xml version="1.0" encoding="utf-8" ?>
<svg baseProfile="full" height="200mm" version="1.1" viewBox="0,0,200,200" width="200mm" xmlns="http://www.w3.org/2000/svg" xmlns:ev="http://www.w3.org/2001/xml-events" xmlns:xlink="http://www.w3.org/1999/xlink"><defs /><rect fill="#1a1a1a" height="200" width="200" x="0" y="0" /><text alignment-baseline="middle" fill="#e1ed5e" style="dominant-baseline: central; font-size:9.0px; font-family:Arial;" text-anchor="middle" x="100.0" y="100.0">2024</text><line stroke="#e1ed5e" stroke-width="0.3" x1="100.0" x2="100.0" y1="15.0" y2="10.0" /><path d="M 100.0 14.0 a86.0,86.0 0 0,1 42.35913384403234,11.155469271406648" fill="none" id="id25" stroke="none" /><text fill="#e1ed5e" style="font-size:6.75px; font-family:Arial;" text-anchor="middle"><textPath startOffset="22.145653131862478" xlink:href="#id25">January</textPath></text><path d="M 100.36049292484886 79.00309439819443 l 0.722882019206683 -42.10425357138195 a63.110458644105535,63.110458644105535 0 0,0 1.0830556684868917,0.027895672157279856 l -1.445551001764316 42.08564018187463" fill="#ff0100" stroke="none" /><path d="M 100.72087961077811 79.0123766808444 l 2.0390950094697167 -59.366026352898174 a80.40103528887897,80.40103528887897 0 0,0 1.378970558670348,0.0592189291344328 l -3.057891328740901 59.32227485533791" fill="#40ffc4" stroke="none" /><path d="M 101.44090949804482 79.04949213459386 l 4.3140666759340185 -62.72558266059199 a83.87376154959367,83.87376154959367 0 0,0 1.4355633536072772,0.11112168270638596 l -5.390199024316529 62.642283210890554" fill="#4dd5ff" stroke="none" /><path d="M 101.80034050326958 79.07731436759882 l 5.023988161063793 -58.386357871716 a79.60210954024268,79.60210954024268 0 0,0 1.360439612831768,0.12883504577890081 l -6.025527337280573 58.291511070431916" fill="#3dffab" stroke="none" /><path d="M 102.15924093988457 79.11130261209362 l 4.350210679063888 -42.08434212694305 a63.308582878771006,63.308582878771006 0 0,0 1.080056779333054,0.12102261490712703 l -5.07200335999774 42.003463751528955" fill="#ff0901" stroke="none" /><path d="M 102.87502721639298 79.19773525538626 l 8.024424037204595 -58.06073497084957 a79.61262941110986,79.61262941110986 0 0,0 1.3521821994048744,0.19872421836115267 l -9.019931342217152 57.91442967918954" fill="#3dffac" stroke="none" /><path d="M 103.23170211078529 79.25015418208739 l 9.030364311293493 -57.98141682476668 a79.68042413447623,79.68042413447623 0 0,0 1.3497199729002984,0.2220959079120578 l -10.024361787246862 57.817854918358954" fill="#3dffae" stroke="none" /><path d="M 103.94208987418118 79.37332000966035 l 11.007505937499158 -57.595922394265514 a79.63834465100746,79.63834465100746 0 0,0 1.3405921295537169,0.2681559713830429 l -11.99459455258383 57.39847702621962" fill="#3dffac" stroke="none" /><path d="M 104.64783097203109 79.52079915486377 l 13.052524984017378 -57.51183343206631 a79.97439608148724,79.97439608148724 0 0,0 1.3362116242411815,0.31534230500529414 l -14.037868761998444 57.279294983414786" fill="#3effb7" stroke="none" /><path d="M 105.3480935250658 79.69241777938227 l 13.423220601457881 -50.97015501916483 a73.70805966826228,73.70805966826228 0 0,0 1.2208111454112884,0.33273750638787414 l -14.296213147803863 50.73221701863281" fill="#72ff27" stroke="none" /><path d="M 105.69591212413111 79.78721728523813 l 11.464109006377656 -40.682078535332806 a63.26650339530224,63.26650339530224 0 0,0 1.0428127000909093,0.30354757888133266 l -12.160781718850169 40.47928726214896" fill="#ff0801" stroke="none" /><path d="M 106.04205211174951 79.88797359093562 l 12.117566551514102 -40.335438025058636 a63.11630301680953,63.11630301680953 0 0,0 1.0349852458262356,0.3206410748029943 l -12.808192430211967 40.121480362449" fill="#ff0100" stroke="none" /><path d="M 106.72888874123014 80.10723608172694 l 13.487365716377509 -39.87300019263781 a63.09234108872314,63.09234108872314 0 0,0 1.0229799032798645,0.35584551292692823 l -14.169851391702391 39.63559624714229" fill="#ff0000" stroke="none" /><path d="M 107.06938296918511 80.22567764915836 l 17.052141843070586 -47.69787562039817 a71.65434710007793,71.65434710007793 0 0,0 1.1546956376098658,0.42402023233147784 l -17.86842663233458 47.398124539057974" fill="#b5ff20" stroke="none" /><path d="M 107.74402155503746 80.48000691201159 l 19.757039518907785 -49.80064584109076 a74.57653345207615,74.57653345207615 0 0,0 1.1859286022001319,0.482306838234883 l -20.609022582298355 49.45415174627659" fill="#58ff2a" stroke="none" /><path d="M 108.07796709384702 80.6158196554323 l 22.704051396379406 -54.481458231610716 a80.02290437493042,80.02290437493042 0 0,0 1.2634661082722702,0.5392985512825826 l -23.635952579822106 54.08368503066873" fill="#3effb9" stroke="none" /><path d="M 108.73861861582097 80.90454125486305 l 25.083279122151794 -54.81149169305021 a81.27827563174885,81.27827563174885 0 0,0 1.2637273481346967,0.5914882082615587 l -26.020495184157998 54.37282725321811" fill="#43ffdf" stroke="none" /><path d="M 109.3889696526874 81.21577127319529 l 26.184438938165165 -52.38641813660172 a79.5658744294779,79.5658744294779 0 0,0 1.2164969695171899,0.6211520205195569 l -27.079863129395935 51.929208164409324" fill="#3dffaa" stroke="none" /><path d="M 110.02825361518725 81.54914285379988 l 28.268723712253745 -52.011267657838786 a80.19706668150951,80.19706668150951 0 0,0 1.203932922103745,0.6678012972099595 l -29.15740082251359 51.51833344519568" fill="#3fffbe" stroke="none" /><path d="M 110.34350942703115 81.72400993836675 l 29.39114594259456 -51.931338675353935 a80.67162974507403,80.67162974507403 0 0,0 1.1993471636375868,0.692443407777975 l -30.278285574092543 51.41914837029979" fill="#41ffcd" stroke="none" /><line stroke="#e1ed5e" stroke-width="0.3" x1="143.13028292997686" x2="145.6673583964461" y1="26.7553504044142" y2="22.446841604673864" /><path d="M 143.63769802327073 25.89364864446614 a86.0,86.0 0 0,1 29.32050498858742,28.57503671076993" fill="none" id="id26" stroke="none" /><text fill="#e1ed5e" style="font-size:6.75px; font-family:Arial;" text-anchor="middle"><textPath startOffset="20.669276256404974" xlink:href="#id26">February</textPath></text><path d="M 110.96478420261332 82.08984904055464 l 31.332270610367587 -51.17890933048455 a81.00826561282423,81.00826561282423 0 0,0 1.1797730232824986,0.7362656221638162 l -32.206207762439796 50.633507911479185" fill="#42ffd7" stroke="none" /><path d="M 111.5731344415666 82.4767994020092 l 33.037478910421136 -50.02295386113512 a80.94806857397305,80.94806857397305 0 0,0 1.152946084850183,0.775753580236132 l -33.89132128336832 49.448450606841874" fill="#42ffd5" stroke="none" /><path d="M 112.16784306229584 82.88440491214696 l 34.150352591098425 -48.03674768520304 a79.93874540799288,79.93874540799288 0 0,0 1.1116015079054617,0.8047137674597077 l -34.96993510937786 47.44343314637025" fill="#3effb6" stroke="none" /><path d="M 112.45986205192187 83.09580414077388 l 35.155106164029036 -47.69465324513533 a80.25083491038629,80.25083491038629 0 0,0 1.1019089706583531,0.8268930343230637 l -35.96866812359816 47.084141183548255" fill="#3fffc0" stroke="none" /><path d="M 113.03279911837588 83.53348406188908 l 39.046167502265405 -49.333557101456 a83.91584103306246,83.91584103306246 0 0,0 1.1218717964296567,0.9037005060661047 l -39.887290069050316 48.656008301596486" fill="#4dd4ff" stroke="none" /><path d="M 113.59037401385872 83.9905735841838 l 40.77112204157618 -48.028279247448594 a84.0,84.0 0 0,0 1.091282080948559,0.94262347014112 l -41.5895836022876 47.32131164484275" fill="#4dd2ff" stroke="none" /><path d="M 117.62189284568427 88.57770195909679 l 50.36500972874423 -32.645990813387456 a81.01995435823223,81.01995435823223 0 0,0 0.746472752075991,1.173579152092018 l -50.91800017244611 31.776597986616768" fill="#42ffd7" stroke="none" /><line stroke="#e1ed5e" stroke-width="0.3" x1="172.87174338648825" x2="177.1583165268699" y1="56.24261187166439" y2="53.66864786411523" /><path d="M 173.72905801456457 55.72781907015455 a86.0,86.0 0 0,1 12.242430191666344,42.057860355516425" fill="none" id="id27" stroke="none" /><text fill="#e1ed5e" style="font-size:6.75px; font-family:Arial;" text-anchor="middle"><textPath startOffset="22.145653131862474" xlink:href="#id27">March</textPath></text><line stroke="#e1ed5e" stroke-width="0.3" x1="184.99686870605535" x2="189.99668451229388" y1="99.2704041080226" y2="99.22748670261217" /><path d="M 185.99683186730306 99.26182062694052 a86.0,86.0 0 0,1 -10.086455211305974,41.156179273409016" fill="none" id="id28" stroke="none" /><text fill="#e1ed5e" style="font-size:6.75px; font-family:Arial;" text-anchor="middle"><textPath startOffset="21.40746469413373" xlink:href="#id28">April</textPath></text><line stroke="#e1ed5e" stroke-width="0.3" x1="174.33088141563837" x2="178.70328620479359" y1="141.23008692659167" y2="143.65538615756765" /><path d="M 175.20536237346943 141.71514677278685 a86.0,86.0 0 0,1 -30.301960400862466,31.631185727798858" fill="none" id="id29" stroke="none" /><text fill="#e1ed5e" style="font-size:6.75px; font-family:Arial;" text-anchor="middle"><textPath startOffset="22.145653131862474" xlink:href="#id29">May</textPath></text><line stroke="#e1ed5e" stroke-width="0.3" x1="143.1302829299769" x2="145.66735839644613" y1="173.24464959558577" y2="177.55315839532614" /><path d="M 143.63769802327073 174.10635135553383 a86.0,86.0 0 0,1 -40.68552437913181,11.842963189579606" fill="none" id="id30" stroke="none" /><text fill="#e1ed5e" style="font-size:6.75px; font-family:Arial;" text-anchor="middle"><textPath startOffset="21.407464694133747" xlink:href="#id30">June</textPath></text><line stroke="#e1ed5e" stroke-width="0.3" x1="101.45913802915013" x2="101.54496967792366" y1="184.9874750549273" y2="189.98673829345242" /><path d="M 101.47630435890484 185.9873277026323 a86.0,86.0 0 0,1 -42.54439059252881,-10.42667462771756" fill="none" id="id31" stroke="none" /><text fill="#e1ed5e" style="font-size:6.75px; font-family:Arial;" text-anchor="middle"><textPath startOffset="22.145653131862474" xlink:href="#id31">July</textPath></text><line stroke="#e1ed5e" stroke-width="0.3" x1="58.13341422392154" x2="55.67067388415222" y1="173.97424548756322" y2="178.32567169271397" /><path d="M 57.64086615596768 174.84453072859336 a86.0,86.0 0 0,1 -31.369924170532247,-30.572349798747897" fill="none" id="id32" stroke="none" /><text fill="#e1ed5e" style="font-size:6.75px; font-family:Arial;" text-anchor="middle"><textPath startOffset="22.145653131862474" xlink:href="#id32">August</textPath></text><line stroke="#e1ed5e" stroke-width="0.3" x1="26.387840678322732" x2="22.057713659400548" y1="142.50000000000003" y2="145.00000000000006" /><path d="M 25.521815274538298 143.00000000000003 a86.0,86.0 0 0,1 -11.493303480769221,-40.785679425670985" fill="none" id="id33" stroke="none" /><text fill="#e1ed5e" style="font-size:6.75px; font-family:Arial;" text-anchor="middle"><textPath startOffset="21.40746469413373" xlink:href="#id33">September</textPath></text><line stroke="#e1ed5e" stroke-width="0.3" x1="15.003131293944662" x2="10.003315487706104" y1="100.72959589197737" y2="100.7725132973878" /><path d="M 14.003168132696942 100.73817937305945 a86.0,86.0 0 0,1 10.791469493833604,-42.45332614584628" fill="none" id="id34" stroke="none" /><text fill="#e1ed5e" style="font-size:6.75px; font-family:Arial;" text-anchor="middle"><textPath startOffset="22.145653131862435" xlink:href="#id34">October</textPath></text><line stroke="#e1ed5e" stroke-width="0.3" x1="26.387840678322718" x2="22.05771365940052" y1="57.49999999999999" y2="54.99999999999999" /><path d="M 25.521815274538284 56.99999999999999 a86.0,86.0 0 0,1 29.574782752854787,-30.34633250058573" fill="none" id="id35" stroke="none" /><text fill="#e1ed5e" style="font-size:6.75px; font-family:Arial;" text-anchor="middle"><textPath startOffset="21.40746469413373" xlink:href="#id35">November</textPath></text><line stroke="#e1ed5e" stroke-width="0.3" x1="56.869717070023135" x2="54.33264160355391" y1="26.7553504044142" y2="22.446841604673864" /><path d="M 56.362301976729285 25.89364864446614 a86.0,86.0 0 0,1 42.16139366436587,-11.88097634709845" fill="none" id="id36" stroke="none" /><text fill="#e1ed5e" style="font-size:6.75px; font-family:Arial;" text-anchor="middle"><textPath startOffset="22.145653131862474" xlink:href="#id36">December</textPath></text></svg>