<?xml version="1.0" encoding="utf-8" ?>
<svg baseProfile="full" height="200mm" version="1.1" viewBox="0,0,200,200" width="200mm" xmlns="http://www.w3.org/2000/svg" xmlns:ev="http://www.w3.org/2001/xml-events" xmlns:xlink="http://www.w3.org/1999/xlink"><defs /><rect fill="#1a1a1a" height="200" width="200" x="0" y="0" /><text alignment-baseline="middle" fill="#e1ed5e" style="dominant-baseline: central; font-size:9.0px; font-family:Arial;" text-anchor="middle" x="100.0" y="100.0">2024</text><line stroke="#e1ed5e" stroke-width="0.3" x1="100.0" x2="100.0" y1="15.0" y2="10.0" /><path d="M 100.0 14.0 a86.0,86.0 0 0,1 42.35913384403234,11.155469271406648" fill="none" id="id25" stroke="none" /><text fill="#e1ed5e" style="font-size:6.75px; font-family:Arial;" text-anchor="middle"><textPath startOffset="22.145653131862478" xlink:href="#id25">January</textPath></text><path d="M 100.36049292484886 79.00309439819443 l 0.36859433012186676 -21.468771843925914 a42.471935782941046,42.471935782941046 0 0,0 0.7288723896102103,0.018773167267999633 l -0.7370800338028184 21.45928095930787" fill="#ff0000" stroke="none" /><path d="M 100.72087961077811 79.0123766808444 l 1.039725486456509 -30.270473098165695 a51.2883239990918,51.2883239990918 0 0,0 0.8796539564967031,0.03777612580998886 l -1.5592052035540485 30.248164403929874" fill="#ffb510" stroke="none" /><path d="M 101.44090949804482 79.04949213459386 l 2.199723432410238 -31.983495934312682 a53.05905169151593,53.05905169151593 0 0,0 0.9081461088454486,0.07029625234204043 l -2.74843853603092 31.94102191497559" fill="#ffd714" stroke="none" /><path d="M 101.80034050326958 79.07731436759882 l 2.5617092437846845 -29.77094449188062 a50.880955309165216,50.880955309165216 0 0,0 0.8695808131355733,0.08235020710370138 l -3.0723896203052705 29.722582529271737" fill="#ffad10" stroke="none" /><path d="M 102.15924093988457 79.11130261209362 l 2.2181530990330125 -21.458619086864992 a42.572958450011356,42.572958450011356 0 0,0 0.7263029797752412,0.0813837638068588 l -2.5861919804090503 21.417379562551165" fill="#ff0200" stroke="none" /><path d="M 102.87502721639298 79.19773525538626 l 4.091618167309216 -29.60491082133931 a50.88631934458488,50.88631934458488 0 0,0 0.8642796465830276,0.12701934494349792 l -4.599222919499925 29.53031040309693" fill="#ffae10" stroke="none" /><path d="M 103.23170211078529 79.25015418208739 l 4.6045426440825015 -29.564466851029998 a50.920887572844926,50.920887572844926 0 0,0 0.8625573940079175,0.1419334909424194 l -5.11137754114349 29.48106736159191" fill="#ffae10" stroke="none" /><path d="M 103.94208987418118 79.37332000966035 l 5.612678375646423 -29.367904953512852 a50.89943143116627,50.89943143116627 0 0,0 0.8568156140663501,0.17138711933405704 l -6.11599047524373 29.267228437515936" fill="#ffae10" stroke="none" /><path d="M 104.64783097203109 79.52079915486377 l 6.655424502275872 -29.325028365260636 a51.07078256262771,51.07078256262771 0 0,0 0.8532902611698964,0.20137417824717027 l -7.157846917185653 29.20645804336724" fill="#ffb110" stroke="none" /><path d="M 105.3480935250658 79.69241777938227 l 6.844440550758503 -25.989455604546144 a47.87560546431545,47.87560546431545 0 0,0 0.7929536200953127,0.21612303526510082 l -7.289575571788509 25.868132075136902" fill="#ff720a" stroke="none" /><path d="M 105.69591212413111 79.78721728523813 l 5.845498251965326 -20.74361111119132 a42.5515023083327,42.5515023083327 0 0,0 0.7013703086738291,0.20415867497455087 l -6.2007285730207595 20.640208741914254" fill="#ff0200" stroke="none" /><path d="M 106.04205211174951 79.88797359093562 l 6.178693351183561 -20.566860654985724 a42.47491580261864,42.47491580261864 0 0,0 0.6965064345057405,0.2157794738308924 l -6.530840418560932 20.457764593348184" fill="#ff0000" stroke="none" /><path d="M 106.72888874123014 80.10723608172694 l 6.8771478598852935 -20.331065658658073 a42.462697721940515,42.462697721940515 0 0,0 0.6884906417960902,0.2394927845501323 l -7.225144273726402 20.21001444153935" fill="#ff0000" stroke="none" /><path d="M 107.06938296918511 80.22567764915836 l 8.694811370031587 -24.320934876525218 a46.82842654961024,46.82842654961024 0 0,0 0.7546308359693387,0.27711089569416625 l -9.11103135765505 24.168093131822328" fill="#ff5d08" stroke="none" /><path d="M 107.74402155503746 80.48000691201159 l 10.074026678177663 -25.39312807030112 a48.31843638840536,48.31843638840536 0 0,0 0.7683679178172139,0.31248854303372475 l -10.508449057185317 25.2164522706881" fill="#ff7b0b" stroke="none" /><path d="M 108.07796709384702 80.6158196554323 l 11.57669494212194 -27.779853513276272 a51.09551672595172,51.09551672595172 0 0,0 0.8067371982080104,0.34434813835591543 l -12.05186721550038 27.577030725260954" fill="#ffb210" stroke="none" /><path d="M 108.73861861582097 80.90454125486305 l 12.789852589549474 -27.948136109059455 a51.7356249526981,51.7356249526981 0 0,0 0.804393592474615,0.37649681749166003 l -13.267734895895595 27.72446305999726" fill="#ffbe11" stroke="none" /><path d="M 109.3889696526874 81.21577127319529 l 13.351329087728242 -26.7116018762446 a50.862479187164155,50.862479187164155 0 0,0 0.7776455953884794,0.39707138194959735 l -13.8079019048303 26.478472542622168" fill="#ffad10" stroke="none" /><path d="M 110.02825361518725 81.54914285379988 l 14.414096634404114 -26.520314313764807 a51.184321312343904,51.184321312343904 0 0,0 0.7683883223334284,0.42621204968679366 l -14.867229144893644 26.268969348644866" fill="#ffb310" stroke="none" /><path d="M 110.34350942703115 81.72400993836675 l 14.986414743188163 -26.479558880687833 a51.426298910164235,51.426298910164235 0 0,0 0.764556089038853,0.4414166638171493 l -15.438763300087414 26.21839531959451" fill="#ffb811" stroke="none" /><line stroke="#e1ed5e" stroke-width="0.3" x1="143.13028292997686" x2="145.6673583964461" y1="26.7553504044142" y2="22.446841604673864" /><path d="M 143.63769802327073 25.89364864446614 a86.0,86.0 0 0,1 29.32050498858742,28.57503671076993" fill="none" id="id26" stroke="none" /><text fill="#e1ed5e" style="font-size:6.75px; font-family:Arial;" text-anchor="middle"><textPath startOffset="20.669276256404974" xlink:href="#id26">February</textPath></text><path d="M 110.96478420261332 82.08984904055464 l 15.97618558765602 -26.095898500477333 a51.59794804359343,51.59794804359343 0 0,0 0.7514525425035973,0.46896196371199067 l -16.42180225894933 25.817800739923797" fill="#ffbb11" stroke="none" /><path d="M 111.5731344415666 82.4767994020092 l 16.84566372430446 -25.506481942097377 a51.56725384091425,51.56725384091425 0 0,0 0.7344741445934111,0.4941869830220611 l -17.28103415699487 25.213545285018196" fill="#ffbb11" stroke="none" /><path d="M 112.16784306229584 82.88440491214696 l 17.413113070035408 -24.493724236898064 a51.052604442594415,51.052604442594415 0 0,0 0.7099204746239952,0.5139276761219047 l -17.83101455503337 24.191195789403086" fill="#ffb110" stroke="none" /><path d="M 112.45986205192187 83.09580414077388 l 17.92543245316012 -24.319291801694394 a51.21173749337774,51.21173749337774 0 0,0 0.7031786399477102,0.5276783606817617 l -18.340264082018596 24.00799441374862" fill="#ffb410" stroke="none" /><path d="M 113.03279911837588 83.53348406188908 l 19.909467343119474 -25.154961597047183 a53.08050783319459,53.08050783319459 0 0,0 0.7096338896819521,0.5716308291804435 l -20.338352003156682 24.80948247407333" fill="#ffd714" stroke="none" /><path d="M 113.59037401385872 83.9905735841838 l 20.789013999440638 -24.48940621810891 a53.123420116551884,53.123420116551884 0 0,0 0.6901504339511343,0.5961355073336753 l -21.206343913154633 24.128926578310516" fill="#ffd814" stroke="none" /><path d="M 117.62189284568427 88.57770195909679 l 25.680894709375778 -16.64604568284982 a51.60390808294862,51.60390808294862 0 0,0 0.47544967890544265,0.7474858653319867 l -25.96286207990711 16.20274614283916" fill="#ffbb11" stroke="none" /><path d="M 117.81537515405839 88.88188828441811 l 25.91356406627884 -16.1719805362698 a51.54579769923561,51.54579769923561 0 0,0 0.46202716308081704,0.7546866482032034 l -26.187359193815062 15.72475677194204" fill="#ffba11" stroke="none" /><line stroke="#e1ed5e" stroke-width="0.3" x1="172.87174338648825" x2="177.1583165268699" y1="56.24261187166439" y2="53.66864786411523" /><path d="M 173.72905801456457 55.72781907015455 a86.0,86.0 0 0,1 12.242430191666344,42.057860355516425" fill="none" id="id27" stroke="none" /><text fill="#e1ed5e" style="font-size:6.75px; font-family:Arial;" text-anchor="middle"><textPath startOffset="22.145653131862474" xlink:href="#id27">March</textPath></text><path d="M 118.53625476483649 90.13048839642627 l 26.870064000476493 -14.306795617880072 a51.44149701051995,51.44149701051995 0 0,0 0.40832773673824696,0.7830222752257823 l -27.111699806189684 13.84342709954979" fill="#ffb811" stroke="none" /><path d="M 118.8641267826498 90.77261029715802 l 27.29876713806094 -13.35319496589181 a51.38964466812987,51.38964466812987 0 0,0 0.38082355411575347,0.7957747604472641 l -27.523969950136603 12.882607703379442" fill="#ffb711" stroke="none" /><path d="M 119.0197475246899 91.09779779509293 l 27.48510419798595 -12.864416568926064 a51.34673238477257,51.34673238477257 0 0,0 0.36680035888791046,0.8015249810953586 l -27.701889021728913 12.390702605616022" fill="#ffb610" stroke="none" /><path d="M 119.58574465831526 92.42381321644754 l 28.251599165212607 -10.928325470578075 a51.29160202073715,51.29160202073715 0 0,0 0.31060561690661903,0.8239183010120037 l -28.435035465933666 10.441738889371914" fill="#ffb510" stroke="none" /><path d="M 119.83427380445688 93.10060997987247 l 28.74012618888922 -9.997307779439407 a51.42927892984183,51.42927892984183 0 0,0 0.2828967368770443,0.8363339351210602 l -28.90750834733863 9.502472169844186" fill="#ffb811" stroke="none" /><path d="M 119.94978838288452 93.4421083053983 l 29.163712821433894 -9.586691669346775 a51.698970710663744,51.698970710663744 0 0,0 0.2699062546612798,0.8454774984916157 l -29.32398379187243 9.084645137163772" fill="#ffbd11" stroke="none" /><path d="M 120.26092885502905 94.47779374421319 l 60.782786565087164 -16.56661876736044 a84.0,84.0 0 0,0 0.3672420767810789,1.3944779825088056 l -61.058218122672976 15.520760280478832" fill="#4dd2ff" stroke="none" /><path d="M 120.51834098615036 95.52812308129327 l 29.327208892019552 -6.391728679372088 a51.01565219859229,51.01565219859229 0 0,0 0.17914337985295808,0.8572659232299432 l -29.432609982696878 5.887346304856741" fill="#ffb010" stroke="none" /><path d="M 120.592083275326 95.88100663000786 l 29.80225992986 -5.961286646939916 a51.392624687807455,51.392624687807455 0 0,0 0.16561568866549947,0.8665712656265797 l -29.900201910807656 5.448812816280022" fill="#ffb711" stroke="none" /><path d="M 120.65975698304385 96.23510406497455 l 29.64689981202214 -5.402652735944435 a51.135150987663664,51.135150987663664 0 0,0 0.14996036219702005,0.8649315187369319 l -29.735274991711396 4.892928184286911" fill="#ffb210" stroke="none" /><path d="M 120.77682067341334 96.94652285012252 l 29.717886358747513 -4.367505903114846 a51.03710834027095,51.03710834027095 0 0,0 0.11995053122657462,0.8679022906652227 l -29.7884814065293 3.856715304249538" fill="#ffb010" stroke="none" /><path d="M 120.86939407059847 97.66154086499901 l 30.14259631556498 -3.3775407885984 a51.33123628244911,51.33123628244911 0 0,0 0.0906060057118422,0.8765309141196459 l -30.19613471375849 2.859605352195823" fill="#ffb610" stroke="none" /><path d="M 120.9064616781168 98.02013634271609 l 30.12315276076498 -2.852693885368287 a51.257927798380386,51.257927798380386 0 0,0 0.07543794553660498,0.8767032771579146 l -30.16768432899933 2.3351695608347107" fill="#ffb510" stroke="none" /><path d="M 120.96210409425399 98.7389718711861 l 30.377639365304155 -1.8274433498836506 a51.43255695148718,51.43255695148718 0 0,0 0.04545269081923363,0.881770059109195 l -30.40453364557996 1.305701497397725" fill="#ffb811" stroke="none" /><line stroke="#e1ed5e" stroke-width="0.3" x1="184.99686870605535" x2="189.99668451229388" y1="99.2704041080226" y2="99.22748670261217" /><path d="M 185.99683186730306 99.26182062694052 a86.0,86.0 0 0,1 -10.086455211305974,41.156179273409016" fill="none" id="id28" stroke="none" /><text fill="#e1ed5e" style="font-size:6.75px; font-family:Arial;" text-anchor="middle"><textPath startOffset="21.40746469413373" xlink:href="#id28">April</textPath></text><line stroke="#e1ed5e" stroke-width="0.3" x1="174.33088141563837" x2="178.70328620479359" y1="141.23008692659167" y2="143.65538615756765" /><path d="M 175.20536237346943 141.71514677278685 a86.0,86.0 0 0,1 -30.301960400862466,31.631185727798858" fill="none" id="id29" stroke="none" /><text fill="#e1ed5e" style="font-size:6.75px; font-family:Arial;" text-anchor="middle"><textPath startOffset="22.145653131862474" xlink:href="#id29">May</textPath></text><line stroke="#e1ed5e" stroke-width="0.3" x1="143.1302829299769" x2="145.66735839644613" y1="173.24464959558577" y2="177.55315839532614" /><path d="M 143.63769802327073 174.10635135553383 a86.0,86.0 0 0,1 -40.68552437913181,11.842963189579606" fill="none" id="id30" stroke="none" /><text fill="#e1ed5e" style="font-size:6.75px; font-family:Arial;" text-anchor="middle"><textPath startOffset="21.407464694133747" xlink:href="#id30">June</textPath></text><line stroke="#e1ed5e" stroke-width="0.3" x1="101.45913802915013" x2="101.54496967792366" y1="184.9874750549273" y2="189.98673829345242" /><path d="M 101.47630435890484 185.9873277026323 a86.0,86.0 0 0,1 -42.54439059252881,-10.42667462771756" fill="none" id="id31" stroke="none" /><text fill="#e1ed5e" style="font-size:6.75px; font-family:Arial;" text-anchor="middle"><textPath startOffset="22.145653131862474" xlink:href="#id31">July</textPath></text><line stroke="#e1ed5e" stroke-width="0.3" x1="58.13341422392154" x2="55.67067388415222" y1="173.97424548756322" y2="178.32567169271397" /><path d="M 57.64086615596768 174.84453072859336 a86.0,86.0 0 0,1 -31.369924170532247,-30.572349798747897" fill="none" id="id32" stroke="none" /><text fill="#e1ed5e" style="font-size:6.75px; font-family:Arial;" text-anchor="middle"><textPath startOffset="22.145653131862474" xlink:href="#id32">August</textPath></text><line stroke="#e1ed5e" stroke-width="0.3" x1="26.387840678322732" x2="22.057713659400548" y1="142.50000000000003" y2="145.00000000000006" /><path d="M 25.521815274538298 143.00000000000003 a86.0,86.0 0 0,1 -11.493303480769221,-40.785679425670985" fill="none" id="id33" stroke="none" /><text fill="#e1ed5e" style="font-size:6.75px; font-family:Arial;" text-anchor="middle"><textPath startOffset="21.40746469413373" xlink:href="#id33">September</textPath></text><line stroke="#e1ed5e" stroke-width="0.3" x1="15.003131293944662" x2="10.003315487706104" y1="100.72959589197737" y2="100.7725132973878" /><path d="M 14.003168132696942 100.73817937305945 a86.0,86.0 0 0,1 10.791469493833604,-42.45332614584628" fill="none" id="id34" stroke="none" /><text fill="#e1ed5e" style="font-size:6.75px; font-family:Arial;" text-anchor="middle"><textPath startOffset="22.145653131862435" xlink:href="#id34">October</textPath></text><line stroke="#e1ed5e" stroke-width="0.3" x1="26.387840678322718" x2="22.05771365940052" y1="57.49999999999999" y2="54.99999999999999" /><path d="M 25.521815274538284 56.99999999999999 a86.0,86.0 0 0,1 29.574782752854787,-30.34633250058573" fill="none" id="id35" stroke="none" /><text fill="#e1ed5e" style="font-size:6.75px; font-family:Arial;" text-anchor="middle"><textPath startOffset="21.40746469413373" xlink:href="#id35">November</textPath></text><line stroke="#e1ed5e" stroke-width="0.3" x1="56.869717070023135" x2="54.33264160355391" y1="26.7553504044142" y2="22.446841604673864" /><path d="M 56.362301976729285 25.89364864446614 a86.0,86.0 0 0,1 42.16139366436587,-11.88097634709845" fill="none" id="id36" stroke="none" /><text fill="#e1ed5e" style="font-size:6.75px; font-family:Arial;" text-anchor="middle"><textPath startOffset="22.145653131862474" xlink:href="#id36">December</textPath></text></svg>