<?xml version="1.0" encoding="utf-8" ?>
<svg baseProfile="full" height="200mm" version="1.1" viewBox="0,0,200,200" width="200mm" xmlns="http://www.w3.org/2000/svg" xmlns:ev="http://www.w3.org/2001/xml-events" xmlns:xlink="http://www.w3.org/1999/xlink"><defs /><rect fill="#1a1a1a" height="200" width="200" x="0" y="0" /><text alignment-baseline="middle" fill="#e1ed5e" style="dominant-baseline: central; font-size:9.0px; font-family:Arial;" text-anchor="middle" x="100.0" y="100.0">2022</text><line stroke="#e1ed5e" stroke-width="0.3" x1="100.0" x2="100.0" y1="15.0" y2="10.0" /><path d="M 100.0 14.0 a86.0,86.0 0 0,1 42.46469731375804,11.215312516191453" fill="none" id="id1" stroke="none" /><text fill="#e1ed5e" style="font-size:6.75px; font-family:Arial;" text-anchor="middle"><textPath startOffset="22.20632615414155" xlink:href="#id1">January</textPath></text><line stroke="#e1ed5e" stroke-width="0.3" x1="143.23703022742887" x2="145.7803849466894" y1="26.81831364943548" y2="22.513508569990506" /><path d="M 143.74570117128098 25.957352633546492 a86.0,86.0 0 0,1 28.547481713284135,27.462654790039103" fill="none" id="id2" stroke="none" /><text fill="#e1ed5e" style="font-size:6.75px; font-family:Arial;" text-anchor="middle"><textPath startOffset="19.985693538727396" xlink:href="#id2">February</textPath></text><line stroke="#e1ed5e" stroke-width="0.3" x1="172.23445277983987" x2="176.4835382374775" y1="55.19839476539836" y2="52.563006222186495" /><path d="M 173.08426987136738 54.67131705675599 a86.0,86.0 0 0,1 12.851231095245387,41.99856678651699" fill="none" id="id3" stroke="none" /><text fill="#e1ed5e" style="font-size:6.75px; font-family:Arial;" text-anchor="middle"><textPath startOffset="22.20632615414155" xlink:href="#id3">March</textPath></text><line stroke="#e1ed5e" stroke-width="0.3" x1="184.98032266829074" x2="189.97916517819016" y1="98.17113171792111" y2="98.06355123074" /><path d="M 185.9800911702706 98.14961562048488 a86.0,86.0 0 0,1 -9.607161424134198,41.387399972396054" fill="none" id="id4" stroke="none" /><text fill="#e1ed5e" style="font-size:6.75px; font-family:Arial;" text-anchor="middle"><textPath startOffset="21.466115282336823" xlink:href="#id4">April</textPath></text><line stroke="#e1ed5e" stroke-width="0.3" x1="174.80103733775053" x2="179.2010983576182" y1="140.37084112569926" y2="142.7455964860345" /><path d="M 175.68104954172406 140.8457921977663 a86.0,86.0 0 0,1 -30.038265399797805,32.042727171017184" fill="none" id="id5" stroke="none" /><text fill="#e1ed5e" style="font-size:6.75px; font-family:Arial;" text-anchor="middle"><textPath startOffset="22.206326154141568" xlink:href="#id5">May</textPath></text><line stroke="#e1ed5e" stroke-width="0.3" x1="143.8653032363475" x2="146.44561519142675" y1="172.8068346515853" y2="177.08958963109032" /><path d="M 144.38136562736335 173.6633856474863 a86.0,86.0 0 0,1 -40.68145358897372,12.25698825130547" fill="none" id="id6" stroke="none" /><text fill="#e1ed5e" style="font-size:6.75px; font-family:Arial;" text-anchor="middle"><textPath startOffset="21.466115282336833" xlink:href="#id6">June</textPath></text><line stroke="#e1ed5e" stroke-width="0.3" x1="102.19456741930631" x2="102.32365962044197" y1="184.97166512339345" y2="189.96999836594603" /><path d="M 102.22038585953345 185.97133177190398 a86.0,86.0 0 0,1 -42.740103519485714,-10.115201625700543" fill="none" id="id7" stroke="none" /><text fill="#e1ed5e" style="font-size:6.75px; font-family:Arial;" text-anchor="middle"><textPath startOffset="22.20632615414155" xlink:href="#id7">July</textPath></text><line stroke="#e1ed5e" stroke-width="0.3" x1="58.666819895761336" x2="56.23545636021788" y1="174.27360380694188" y2="178.64263932499728" /><path d="M 58.180547188652646 175.14741091055294 a86.0,86.0 0 0,1 -31.652253787137756,-30.449443065178592" fill="none" id="id8" stroke="none" /><text fill="#e1ed5e" style="font-size:6.75px; font-family:Arial;" text-anchor="middle"><textPath startOffset="22.20632615414155" xlink:href="#id8">August</textPath></text><path d="M 87.95078237400918 117.19931262002967 l -8.76922553965081 12.517381308365263 a36.28346005930189,36.28346005930189 0 0,0 -0.5084395593589977,-0.36275812569507215 l 8.983392426858694 -12.364578920825972" fill="#ff9a0e" stroke="none" /><path d="M 85.97065885151581 115.62618273729859 l -10.248630786140573 11.415145998402059 a36.340794997504624,36.340794997504624 0 0,0 -0.46187497893174567,-0.42191184230409534 l 10.443605314539175 -11.237041389511386" fill="#ff9b0e" stroke="none" /><path d="M 82.6465618267979 111.8261652097733 l -12.641014044319755 8.614703266010185 a36.29733141531868,36.29733141531868 0 0,0 -0.34741194744555204,-0.5193337239590786 l 12.787429097176037 -8.395832627845286" fill="#ff9a0e" stroke="none" /><path d="M 82.24976979558568 111.22182372390057 l -7.666163040608322 4.846603637793593 a30.069709068490738,30.069709068490738 0 0,0 -0.2728258501164103,-0.4398821400295019 l 7.7484535303926885 -4.713925166398827" fill="#ff4006" stroke="none" /><path d="M 82.05923443525364 110.91462005526583 l -7.790325675018742 4.7393989148764595 a30.118721193083402,30.118721193083402 0 0,0 -0.26564586497485776,-0.44523774961946766 l 7.8707524156918325 -4.604599071370881" fill="#ff4006" stroke="none" /><line stroke="#e1ed5e" stroke-width="0.3" x1="26.63291911575756" x2="22.317208475507996" y1="142.92168965132927" y2="145.44649492493687" /><path d="M 25.769776987707644 143.4266507060508 a86.0,86.0 0 0,1 -11.730757126820373,-40.83630448921669" fill="none" id="id9" stroke="none" /><text fill="#e1ed5e" style="font-size:6.75px; font-family:Arial;" text-anchor="middle"><textPath startOffset="21.46611528233685" xlink:href="#id9">September</textPath></text><path d="M 81.87401531095188 110.60418214915194 l -13.100271675053033 7.664006641778382 a36.1774212488624,36.1774212488624 0 0,0 -0.3098303331410703,-0.5402153015079635 l 13.23025400434648 -7.437371494412112" fill="#ff980e" stroke="none" /><path d="M 81.69416730710424 110.29060199501025 l -16.12689957915516 9.065717346307283 a39.500381645774006,39.500381645774006 0 0,0 -0.3280856378424436,-0.5955707315995042 l 16.28056162644912 -8.786776096309957" fill="#ffc612" stroke="none" /><path d="M 81.35079622478065 109.6543875284942 l -22.48246567910915 11.638804470065756 a46.316457740069865,46.316457740069865 0 0,0 -0.3604331968890657,-0.7111688917683859 l 22.679477545784483 -11.250081366594685" fill="#dfff1b" stroke="none" /><path d="M 81.18737489456691 109.33194174019688 l -4.4039536327018585 2.1845669329281017 a25.91600857235123,25.91600857235123 0 0,0 -0.19479797879479374,-0.401341533572713 l 4.440904868111371 -2.1084364433901035" fill="#ff0000" stroke="none" /><path d="M 81.02952815118164 109.00673069616217 l -22.362690503404064 10.617275764721123 a45.75513019992367,45.75513019992367 0 0,0 -0.3316710583917618,-0.7143899529333085 l 22.542136178635655 -10.230765744508988" fill="#e6ff1a" stroke="none" /><path d="M 80.87730276802145 108.67885076344099 l -11.338996526773993 5.146212245544467 a33.452162170096585,33.452162170096585 0 0,0 -0.2334625048115557,-0.526396316048787 l 11.425900116316829 -4.950267593002984" fill="#ff710a" stroke="none" /><path d="M 80.58989483394504 108.01547362559985 l -12.233386453261629 5.0518214934442165 a34.235431406511466,34.235431406511466 0 0,0 -0.22024368013286763,-0.5466267520370272 l 12.318532747651885 -4.8404953735643845" fill="#ff7d0b" stroke="none" /><path d="M 80.45479744820244 107.68017299344265 l -18.256170536631164 7.173655404570008 a40.61502216481226,40.61502216481226 0 0,0 -0.25008355715936403,-0.6528892531137885 l 18.376948373384035 -6.8583425846230615" fill="#ffd513" stroke="none" /><path d="M 80.32549172779594 107.34259656027581 l -9.688813052640313 3.6158995390995097 a31.34155828905264,31.34155828905264 0 0,0 -0.18428200338040995,-0.5070649273317536 l 9.749619317025948 -3.448586814761639" fill="#ff5207" stroke="none" /><path d="M 80.20201598880116 107.00284435728193 l -28.772841484378727 10.17738626912084 a51.51975750814667,51.51975750814667 0 0,0 -0.288533136692357,-0.8386123545954608 l 28.94376545201431 -9.680601211436082" fill="#9fff22" stroke="none" /><path d="M 79.97269907076064 106.31721596034903 l -13.693916153683286 4.319475000219864 a35.35901124387165,35.35901124387165 0 0,0 -0.1780969876312538,-0.5820312602016807 l 13.766239913820671 -4.083116767466135" fill="#ff8d0d" stroke="none" /><path d="M 79.86692584326677 105.97154293290107 l -14.471071870251528 4.2921724862074235 a36.094193112761644,36.094193112761644 0 0,0 -0.171546011348023,-0.5971741702248824 l 14.542810518485656 -4.042440840477945" fill="#ff970d" stroke="none" /><path d="M 79.67330655649465 105.27499134158121 l -17.477566888415772 4.535612949766648 a39.056498253236654,39.056498253236654 0 0,0 -0.1632723166613804,-0.6521917441921184 l 17.55305051937221 -4.234093366177138" fill="#ffc011" stroke="none" /><path d="M 79.58551787078972 104.9243191809786 l -29.10755271266434 7.021235181333671 a50.94240084549218,50.94240084549218 0 0,0 -0.19828585786901615,-0.8542102860766804 l 29.22409913646391 -6.519156237908415" fill="#a6ff21" stroke="none" /><path d="M 79.4281124754447 104.21870165774334 l -17.78894833208397 3.648000978446706 a39.15914628776092,39.15914628776092 0 0,0 -0.12972878246929567,-0.6614842669200496 l 17.849107047528932 -3.3412529844587016" fill="#ffc212" stroke="none" /><path d="M 79.35854240842038 103.8639653848113 l -18.882300987981715 3.5346611100231917 a40.21028682147785,40.21028682147785 0 0,0 -0.12149932158973357,-0.6814327194001587 l 18.94034675191064 -3.2091096398898196" fill="#ffd013" stroke="none" /><path d="M 79.29508885075956 103.50808413554451 l -15.302414296513165 2.5927257761304943 a36.52050612101107,36.52050612101107 0 0,0 -0.09968054003305223,-0.6207108179383322 l 15.34477659090751 -2.3289357284989483" fill="#ff9d0e" stroke="none" /><path d="M 79.23777060512086 103.15116336523772 l -18.87209425253936 2.8642902890083195 a40.08821888853008,40.08821888853008 0 0,0 -0.09767389345171151,-0.6831309833095868 l 18.91860219700767 -2.5390138337183323" fill="#ffce13" stroke="none" /><path d="M 79.18660465613746 102.79330883721812 l -15.131460009259667 2.0307518434920473 a36.26712268443766,36.26712268443766 0 0,0 -0.07771265641709965,-0.6194463338089603 l 15.164174174923616 -1.7699877553956787" fill="#ff9a0e" stroke="none" /><path d="M 79.1416061653843 102.43462659150553 l -45.2080870981737 5.276763487783657 a66.5150016146552,66.5150016146552 0 0,0 -0.12295044182546347,-1.1383683919117495 l 45.29221984150021 -4.4977987739871255" fill="#36ff6d" stroke="none" /><path d="M 79.07016306316243 101.71520430193888 l -18.6754385655474 1.5304559067941852 a39.73804421219505,39.73804421219505 0 0,0 -0.05000075619214211,-0.6822205924559874 l 18.699015880403877 -1.2087621778414372" fill="#ffca12" stroke="none" /><path d="M 79.04373962182676 101.35467743843564 l -31.0378808701183 2.006384545374104 a52.10266271320788,52.10266271320788 0 0,0 -0.050151663900479676,-0.8954916489253195 l 31.067818884906313 -1.4718211801133465" fill="#98ff23" stroke="none" /><path d="M 79.0235259727143 100.99374915477108 l -15.285428472779033 0.724138938001654 a36.302571705369466,36.302571705369466 0 0,0 -0.02419802742340554,-0.6244435662802545 l 15.29562863305364 -0.4609181247074027" fill="#ff9a0e" stroke="none" /><path d="M 79.0095281055655 100.63252640178507 l -12.303856298042646 0.37076412533369685 a33.30944132930159,33.30944132930159 0 0,0 -0.012337083174129987,-0.5732557774643231 l 12.308415443901783 -0.15891853207924492" fill="#ff6f0a" stroke="none" /><line stroke="#e1ed5e" stroke-width="0.3" x1="15.007084014347285" x2="10.007500721073583" y1="101.09737516637583" y2="101.16192664675087" /><path d="M 14.007167355692545 101.11028546245083 a86.0,86.0 0 0,1 10.666146001902534,-42.60595125391555" fill="none" id="id10" stroke="none" /><text fill="#e1ed5e" style="font-size:6.75px; font-family:Arial;" text-anchor="middle"><textPath startOffset="22.20632615414155" xlink:href="#id10">October</textPath></text><path d="M 79.00175016825051 100.2711162175752 l -12.747638442613622 0.16458950366196903 a33.748700936500015,33.748700936500015 0 0,0 -0.0025001402629840604,-0.5809445481658809 l 12.74858288016611 0.05486452270758728" fill="#ff760a" stroke="none" /><path d="M 79.00019446554 99.90962569577889 l -9.421337761724384 -0.04054546332111558 a30.42142500660541,30.42142500660541 0 0,0 0.006760789236894171,-0.5236305770485868 l 9.419243965369775 0.20271229843017435" fill="#ff4506" stroke="none" /><path d="M 79.01574976396665 99.18683210126434 l -41.827426776148805 -1.6208690021564365 a62.85882042098465,62.85882042098465 0 0,0 0.05120417181435757,-1.0808391383236355 l 41.793328996100946 2.340619247103081" fill="#31ff3f" stroke="none" /><path d="M 79.03285615573316 98.82574320788736 l -15.497454145762454 -0.8679289333006504 a36.52173913043478,36.52173913043478 0 0,0 0.04055549390536838,-0.6273755404295447 l 15.480218060852673 1.1345635379832069" fill="#ff9d0e" stroke="none" /><path d="M 79.08570108090925 98.10471618934814 l -14.946021238234065 -1.354429914006188 a36.00726594838975,36.00726594838975 0 0,0 0.06125157314289972,-0.6167949825747115 l 14.920492539408936 1.6115004272853297" fill="#ff960d" stroke="none" /><path d="M 79.16333360222342 97.38593545837743 l -62.50999919332974 -7.842193624867687 a84.0,84.0 0 0,0 0.19233600376866455,-1.4331266317413625 l 62.36574719050324 8.91703859867371" fill="#4dd2ff" stroke="none" /><path d="M 79.26566170972629 96.67025291283419 l -21.74357214769302 -3.4918209112717586 a43.02216481225963,43.02216481225963 0 0,0 0.12371564030392966,-0.7301767122146686 l 21.680244645868864 3.8655834118022554" fill="#fff517" stroke="none" /><path d="M 79.32604984820605 96.31383870115002 l -17.956105311946203 -3.2015700914915515 a39.239291900302376,39.239291900302376 0 0,0 0.1242844330970592,-0.6639324112867971 l 17.898335154939282 3.5101805802409216" fill="#ffc312" stroke="none" /><path d="M 79.3925641242962 95.95851677861259 l -9.609805805936563 -1.8846531494621244 a30.79286909549952,30.79286909549952 0 0,0 0.10648570640536092,-0.519262122061429 l 9.575940803616207 2.049790927686956" fill="#ff4a06" stroke="none" /><path d="M 79.62865764111835 94.90015583598534 l -23.766765435021462 -5.949868097349742 a45.50020550157062,45.50020550157062 0 0,0 0.19674216953321116,-0.7581278353933719 l 23.660826933617944 6.358092358291978" fill="#e9ff1a" stroke="none" /><path d="M 79.81627453868168 94.20196356495316 l -18.06479870061978 -5.189347291644106 a39.79537915039779,39.79537915039779 0 0,0 0.19479668089831537,-0.6567575693717785 l 17.972796122609754 5.499534247762424" fill="#ffca12" stroke="none" /><path d="M 79.91906864156998 93.8553929516997 l -24.627629626400886 -7.535860956059931 a46.75479259020051,46.75479259020051 0 0,0 0.24211082389234864,-0.7675574744875778 l 24.494263318740334 7.958668596973923" fill="#d9ff1c" stroke="none" /><path d="M 80.02781315780177 93.51064311812611 l -29.02601425387083 -9.431123734219712 a51.51975750814667,51.51975750814667 0 0,0 0.28130451524314976,-0.8410646954624913 l 28.859372444855907 9.929361532604526" fill="#9fff22" stroke="none" /><path d="M 80.2630227832202 92.82701384747504 l -28.946369104854796 -10.51994449172678 a51.79872589026216,51.79872589026216 0 0,0 0.3117676797138611,-0.8353823804948106 l 28.760996836639308 11.016650009250935" fill="#9cff22" stroke="none" /><path d="M 80.38941819471856 92.48833698450439 l -17.677330661749302 -6.771147957924813 a39.929777177582714,39.929777177582714 0 0,0 0.2513797187934894,-0.6397339650327686 l 17.558157393074122 7.074430927853346" fill="#ffcc13" stroke="none" /><path d="M 80.65960295795068 91.81776055985345 l -13.636447634057442 -5.769099745589041 a35.80659366468015,35.80659366468015 0 0,0 0.24503524564298806,-0.5655751308578315 l 13.535121678571773 6.002974021033472" fill="#ff930d" stroke="none" /><path d="M 80.95270993114464 91.15688171328213 l -17.44971769628924 -8.10141059963356 a40.238646038223294,40.238646038223294 0 0,0 0.2970796361489804,-0.6257254784827556 l 17.307679866298507 8.400578493756848" fill="#ffd013" stroke="none" /><path d="M 81.10775173730289 90.83032412892265 l -14.184854400452398 -6.88486173386779 a36.767416258109975,36.767416258109975 0 0,0 0.2812532034018698,-0.5669892957550622 l 14.064241184097115 7.128010618121814" fill="#ffa10e" stroke="none" /><path d="M 81.26839172434947 90.50648371742162 l -9.213478873099456 -4.669556954949931 a31.329228194815492,31.329228194815492 0 0,0 0.24793439011202498,-0.4789303257650648 l 9.131735049827318 4.827460002975331" fill="#ff5207" stroke="none" /><path d="M 81.43458229118936 90.18545643968196 l -27.121054161385434 -14.337451041693512 a51.67758271438218,51.67758271438218 0 0,0 0.42250582876318676,-0.7828391331835269 l 26.870240233403774 14.802171158209513" fill="#9dff22" stroke="none" /><path d="M 81.6062741919709 89.86733742301443 l -18.75713999552885 -10.332858740397816 a42.41490767108006,42.41490767108006 0 0,0 0.3577846090104237,-0.6364588967500442 l 18.576497745225993 10.654201147082643" fill="#ffed16" stroke="none" /><line stroke="#e1ed5e" stroke-width="0.3" x1="26.266209847984243" x2="21.928928074336255" y1="57.711370442889674" y2="55.22380399835377" /><path d="M 25.398753493254645 57.213857153982495 a86.0,86.0 0 0,1 29.58750427330803,-30.492523968695096" fill="none" id="id11" stroke="none" /><text fill="#e1ed5e" style="font-size:6.75px; font-family:Arial;" text-anchor="middle"><textPath startOffset="21.46611528233685" xlink:href="#id11">November</textPath></text><path d="M 81.78341655067845 89.55222093294921 l -21.849418236957426 -12.531323182439213 a46.18791650764759,46.18791650764759 0 0,0 0.40148368165921156,-0.686265754803123 l 21.63047488082789 12.905568349596226" fill="#e0ff1b" stroke="none" /><path d="M 81.96595687620814 89.24020034530311 l -18.377909225101288 -10.96496331837084 a42.40041981035141,42.40041981035141 0 0,0 0.3793509061141499,-0.623553146046938 l 18.186442520700922 11.279684237624853" fill="#ffed16" stroke="none" /><path d="M 82.34701348167596 88.62581576622439 l -20.878285569986833 -13.452311103954461 a45.83681707424478,45.83681707424478 0 0,0 0.43305613009589017,-0.6595741964093722 l 20.643632804533024 13.8097033643415" fill="#e5ff1a" stroke="none" /><path d="M 82.7489923806493 88.02491185347247 l -35.60226518888312 -24.71393400665429 a64.3393564865103,64.3393564865103 0 0,0 0.6393719880321042,-0.9043463343106685 l 35.17158058104714 25.323106841296745" fill="#33ff52" stroke="none" /><path d="M 82.95767976084542 87.72973835380427 l -15.118098542892108 -10.884845614393813 a39.62892287819628,39.62892287819628 0 0,0 0.4033420211849703,-0.5501580636114239 l 14.928493909193504 11.143466121676736" fill="#ffc812" stroke="none" /><path d="M 83.39014120810768 87.1503855733568 l -24.03901957115063 -18.596915034256238 a51.39275753750404,51.39275753750404 0 0,0 0.5473228814422008,-0.6950444779227613 l 23.715342609114458 19.007951906132046" fill="#a1ff22" stroke="none" /><path d="M 83.6137871275137 86.86637796730984 l -20.340012702183177 -16.302610069171983 a47.0670522267563,47.0670522267563 0 0,0 0.5121377336825239,-0.627820305647505 l 20.056376476424262 16.650314544427573" fill="#d5ff1c" stroke="none" /><path d="M 83.84228863543731 86.58626213691792 l -18.722035928952966 -15.542577568563736 a45.332824472301326,45.332824472301326 0 0,0 0.5036031814304314,-0.5961073221933433 l 18.45172213403541 15.862543840386197" fill="#ebff1a" stroke="none" /><path d="M 84.31358615837235 86.03803664274999 l -32.14717829461359 -28.613150839950404 a64.03665267298828,64.03665267298828 0 0,0 0.7399476668934356,-0.8170686950626069 l 31.649886987104104 29.162272322282565" fill="#33ff4e" stroke="none" /><path d="M 84.5562425177563 85.77008943001954 l -19.754117767118522 -18.201485586532275 a47.86111029562869,47.86111029562869 0 0,0 0.5634681177074127,-0.6010685012919101 l 19.43788232744065 18.538823504702233" fill="#cbff1d" stroke="none" /><path d="M 84.80347519578584 85.50635884689758 l -21.093916736425264 -20.11826148609894 a50.149575786043506,50.149575786043506 0 0,0 0.601163827879806,-0.6195521684224875 l 20.744488644842342 20.478377850071553" fill="#afff20" stroke="none" /><path d="M 85.31137513191541 84.99185889309783 l -24.44172861566711 -24.973400522847932 a55.94379532043567,55.94379532043567 0 0,0 0.6940140998519121,-0.6676410141908816 l 24.008231272202767 25.390424623801128" fill="#6cff28" stroke="none" /><path d="M 85.57189188830299 84.74124197986013 l -14.254443891698907 -15.075095665436605 a41.747233068138456,41.747233068138456 0 0,0 0.5263970566581783,-0.4892286953400808 l 13.992838951245872 15.318228946851333" fill="#ffe415" stroke="none" /><path d="M 86.10567301691215 84.25364557470407 l -12.258032684504135 -13.89195226526674 a39.52689134838388,39.52689134838388 0 0,0 0.5140494832123254,-0.44577864631400316 l 12.017089402645036 14.100895905000423" fill="#ffc712" stroke="none" /><path d="M 86.37877921826538 84.01681056812374 l -9.653979746723339 -11.328014539657593 a35.88365675366233,35.88365675366233 0 0,0 0.47356595312494437,-0.39659786671441594 l 9.457556256639284 11.49251356376582" fill="#ff940d" stroke="none" /><path d="M 86.65592168130627 83.78471172551755 l -17.722242875242507 -21.535490891856597 a48.89005665971875,48.89005665971875 0 0,0 0.6544204176683787,-0.5291624658650037 l 17.348919059009628 21.837359454985737" fill="#bfff1e" stroke="none" /><path d="M 86.93701828274178 83.55741782278169 l -15.687619795904128 -19.74625573565069 a46.21935824795232,46.21935824795232 0 0,0 0.6271910677185761,-0.48953257669421557 l 15.345396173026126 20.013366701568128" fill="#e0ff1b" stroke="none" /><path d="M 87.22198572758235 83.33499621200491 l -20.47378278366588 -26.70177543790025 a54.6475941637554,54.6475941637554 0 0,0 0.7514144286969016,-0.5659497692396902 l 20.01112220121059 27.050241796645796" fill="#7bff26" stroke="none" /><path d="M 87.80319425747018 82.90503203632743 l -28.562754181332615 -40.03338070569764 a70.1782726125121,70.1782726125121 0 0,0 0.9894095808749372,-0.6931446404037667 l 27.869413460874018 40.51911018886535" fill="#3bff99" stroke="none" /><path d="M 88.09926311788651 82.69761687909137 l -13.725693553684396 -19.955672562005017 a45.22031236238735,45.22031236238735 0 0,0 0.645133014344818,-0.4355966910973502 l 13.38015584493304 20.18898116540103" fill="#ecff1a" stroke="none" /><path d="M 88.70189139769569 82.29822771554957 l -23.096228909918604 -36.18695829402222 a63.929380853125096,63.929380853125096 0 0,0 0.9327018044808673,-0.5840577843996937 l 22.469907953065498 36.579160419744845" fill="#32ff4d" stroke="none" /><path d="M 89.00827224532344 82.1063720568725 l -14.194085334379167 -23.106802464091505 a48.118192760473235,48.118192760473235 0 0,0 0.7094865611282765,-0.4274577145804764 l 13.79423670703324 23.3477067881306" fill="#c8ff1d" stroke="none" /><line stroke="#e1ed5e" stroke-width="0.3" x1="56.762969772571076" x2="54.21961505331055" y1="26.818313649435495" y2="22.513508569990535" /><path d="M 56.25429882871897 25.957352633546506 a86.0,86.0 0 0,1 42.265352541879196,-11.944610805530505" fill="none" id="id12" stroke="none" /><text fill="#e1ed5e" style="font-size:6.75px; font-family:Arial;" text-anchor="middle"><textPath startOffset="22.20632615414155" xlink:href="#id12">December</textPath></text><path d="M 89.3179101791058 81.91981866633112 l -11.268831741890391 -19.07328291824142 a43.153480315885275,43.153480315885275 0 0,0 0.6427880784905906,-0.3723443441613736 l 10.938846930934481 19.264431419792842" fill="#fff717" stroke="none" /><path d="M 89.63071344664047 81.73862282372117 l -18.139782650622102 -31.946017806924786 a57.736899274873025,57.736899274873025 0 0,0 0.8684616977431461,-0.48329799453053435 l 17.58719686380691 32.253531199015505" fill="#59ff2a" stroke="none" /><path d="M 89.94658935756843 81.56283822128135 l -16.53826337517697 -30.329869954804312 a55.54584152893169,55.54584152893169 0 0,0 0.8433841293454114,-0.4505065936542694 l 16.013734199303254 30.61005527496033" fill="#71ff27" stroke="none" /><path d="M 90.26544431104013 81.39251694778311 l -10.287398890682944 -19.664236008929855 a43.19262836508822,43.19262836508822 0 0,0 0.6617511995211055,-0.3389746669507451 l 9.947387203573074 19.838403201193106" fill="#fff717" stroke="none" /><path d="M 91.56875222667455 80.76684994638697 l -12.8054077313505 -29.211373573192905 a52.894871267944694,52.894871267944694 0 0,0 0.837039278663275,-0.35837653582623 l 12.300684694896917 29.427469636981918" fill="#8fff24" stroke="none" /><path d="M 91.90106846888425 80.62456947434976 l -21.155584661064857 -50.61143673769321 a75.85504799929542,75.85504799929542 0 0,0 1.2090432446910393,-0.49319909677743 l 20.281257546785437 50.96809672065422" fill="#42ffd9" stroke="none" /><path d="M 92.57280143429618 80.3572730644239 l -9.212752658254338 -24.364985423537615 a47.04855708540058,47.04855708540058 0 0,0 0.7599858147745754,-0.2799091893656022 l 8.791984517707194 24.51995788070954" fill="#d5ff1c" stroke="none" /><path d="M 93.25333710446033 80.11325718540243 l -11.809878611422834 -34.811287039738204 a57.76001820156768,57.76001820156768 0 0,0 0.9442860207709184,-0.3113162546168719 l 11.208909768409507 35.00941701861431" fill="#58ff2a" stroke="none" /><path d="M 93.59665428221793 80.00007090966166 l -11.90830934399029 -37.19389096925294 a60.05372398203329,60.05372398203329 0 0,0 0.9872106638947806,-0.30673115876737855 l 11.266313307384781 37.39336226290285" fill="#40ff2d" stroke="none" /><path d="M 93.94186890950719 79.89281104454417 l -10.031851049242206 -33.29613070549984 a55.774564777030804,55.774564777030804 0 0,0 0.9216342657070664,-0.26905031503550003 l 9.45722656581172 33.46387934945404" fill="#6eff28" stroke="none" /><path d="M 94.63758080256005 79.69619591428918 l -4.665098473045145 -17.663528707803533 a39.26919237882747,39.26919237882747 0 0,0 0.6550309066105727,-0.16698196296656215 l 4.3603586777495735 17.741213666938958" fill="#ffc312" stroke="none" /><path d="M 98.19473922651362 79.07773832637324 l -0.4664857859914607 -5.406386614545483 a26.426474473769193,26.426474473769193 0 0,0 0.453540983852965,-0.035203509270809036 l 0.37335461277616155 5.4136153860047544" fill="#ff0801" stroke="none" /></svg>