<?xml version="1.0" encoding="utf-8" ?>
<svg baseProfile="full" height="200mm" version="1.1" viewBox="0,0,200,200" width="200mm" xmlns="http://www.w3.org/2000/svg" xmlns:ev="http://www.w3.org/2001/xml-events" xmlns:xlink="http://www.w3.org/1999/xlink"><defs /><rect fill="#1a1a1a" height="200" width="200" x="0" y="0" /><text alignment-baseline="middle" fill="#e1ed5e" style="dominant-baseline: central; font-size:9.0px; font-family:Arial;" text-anchor="middle" x="100.0" y="100.0">2024</text><line stroke="#e1ed5e" stroke-width="0.3" x1="100.0" x2="100.0" y1="15.0" y2="10.0" /><path d="M 100.0 14.0 a86.0,86.0 0 0,1 42.35913384403234,11.155469271406648" fill="none" id="id25" stroke="none" /><text fill="#e1ed5e" style="font-size:6.75px; font-family:Arial;" text-anchor="middle"><textPath startOffset="22.145653131862478" xlink:href="#id25">January</textPath></text><path d="M 100.36049292484886 79.00309439819443 l 0.7238489776539554 -42.16057405325205 a63.16678742615093,63.16678742615093 0 0,0 1.0840223419670714,0.02792057023710238 l -1.4474846336917682 42.1419357656649" fill="#ff0100" stroke="none" /><path d="M 100.72087961077811 79.0123766808444 l 2.041822591691725 -59.445436933238696 a80.48049269869578,80.48049269869578 0 0,0 1.380333344962986,0.05927745304154719 l -3.061981697255548 59.40162691177132" fill="#40ffc6" stroke="none" /><path d="M 101.44090949804482 79.04949213459386 l 4.319837359259313 -62.80948712965086 a83.95786422918292,83.95786422918292 0 0,0 1.4370028350676038,0.11123310767533226 l -5.39740918910215 62.72607625498048" fill="#4dd3ff" stroke="none" /><path d="M 101.80034050326958 79.07731436759882 l 5.03070846626196 -58.46445800486288 a79.68049827221046,79.68049827221046 0 0,0 1.3617793152188598,0.12896191698784176 l -6.0335873448658335 58.36948433236985" fill="#3dffad" stroke="none" /><path d="M 102.15924093988457 79.11130261209362 l 4.3560297101806835 -42.140635974398556 a63.36517668041466,63.36517668041466 0 0,0 1.0810222806340468,0.12113080134174627 l -5.078787892415527 42.05964941254984" fill="#ff0901" stroke="none" /><path d="M 102.87502721639298 79.19773525538626 l 8.035157856003664 -58.138399536633784 a79.69103221491471,79.69103221491471 0 0,0 1.3535138332985484,0.19891992268619116 l -9.031996794909896 57.99189854064871" fill="#3dffae" stroke="none" /><path d="M 103.23170211078529 79.25015418208739 l 9.042443719579696 -58.05897529114693 a79.75891762345334,79.75891762345334 0 0,0 1.351049587180918,0.22231469543595622 l -10.037770809813685 57.8951945972153" fill="#3dffb0" stroke="none" /><path d="M 103.94208987418118 79.37332000966035 l 11.022230056465824 -57.672965206519564 a79.71678185263626,79.71678185263626 0 0,0 1.3419125022413787,0.2684200828997691 l -12.01063904423816 57.47525572695694" fill="#3dffae" stroke="none" /><path d="M 104.64783097203109 79.52079915486377 l 13.069984609455815 -57.588763763265156 a80.05328280013376,80.05328280013376 0 0,0 1.337529662958802,0.31565335855381926 l -14.0566464261545 57.35591426106511" fill="#3effb9" stroke="none" /><path d="M 105.3480935250658 79.69241777938227 l 13.441176085486134 -51.03833491663778 a73.778564262624,73.778564262624 0 0,0 1.2219788982321724,0.33305578261197216 l -14.315336384653 50.80007863988167" fill="#71ff27" stroke="none" /><path d="M 105.69591212413111 79.78721728523813 l 11.479443897479708 -40.73649665398446 a63.32304090959759,63.32304090959759 0 0,0 1.0437445998289172,0.30381884131341447 l -12.17704850969023 40.533434118368525" fill="#ff0801" stroke="none" /><path d="M 106.04205211174951 79.88797359093562 l 12.133775535865697 -40.38939246227864 a63.17263961654219,63.17263961654219 0 0,0 1.0359090570562406,0.32092727388351105 l -12.825325225793568 40.175148600588486" fill="#ff0100" stroke="none" /><path d="M 106.72888874123014 80.10723608172694 l 13.505407003702949 -39.9263360528888 a63.14864563593802,63.14864563593802 0 0,0 1.0238928258195923,0.35616307477576853 l -14.188805601567559 39.68861454554444" fill="#ff0000" stroke="none" /><path d="M 107.06938296918511 80.22567764915836 l 17.074951530075033 -47.761678374544296 a71.722104559135,71.722104559135 0 0,0 1.155787535667069,0.42442119242244686 l -17.892328217396226 47.46152633311313" fill="#b4ff20" stroke="none" /><path d="M 107.74402155503746 80.48000691201159 l 19.78346739475517 -49.86726135219243 a74.64819975476536,74.64819975476536 0 0,0 1.187068251822324,0.4827703238148373 l -20.636590107767933 49.5203037717983" fill="#56ff2a" stroke="none" /><path d="M 108.07796709384702 80.6158196554323 l 22.73442132356217 -54.55433500106556 a80.10185598038123,80.10185598038123 0 0,0 1.2647126598497211,0.5398306300264578 l -23.667569058582323 54.156029721379696" fill="#3fffbb" stroke="none" /><path d="M 108.73861861582097 80.90454125486305 l 25.116831607879785 -54.884809929625455 a81.35890647642402,81.35890647642402 0 0,0 1.2649810091250069,0.5920749849060782 l -26.055301330876297 54.44555871314884" fill="#43ffe1" stroke="none" /><path d="M 109.3889696526874 81.21577127319529 l 26.219464383183336 -52.456492489253506 a79.64421469178464,79.64421469178464 0 0,0 1.2176947278824521,0.621763604475226 l -27.116086332779368 51.99867093310545" fill="#3dffac" stroke="none" /><path d="M 110.02825361518725 81.54914285379988 l 28.306537187289642 -52.08084019288438 a80.27625125404079,80.27625125404079 0 0,0 1.2051216552798811,0.6684606674643032 l -29.196403030725623 51.58724660998693" fill="#3fffc0" stroke="none" /><path d="M 110.34350942703115 81.72400993836675 l 29.430460818451333 -52.00080429391421 a80.75144911381116,80.75144911381116 0 0,0 1.200533840215223,0.6931285358195143 l -30.318787126526953 51.48792886081852" fill="#41ffcf" stroke="none" /><line stroke="#e1ed5e" stroke-width="0.3" x1="143.13028292997686" x2="145.6673583964461" y1="26.7553504044142" y2="22.446841604673864" /><path d="M 143.63769802327073 25.89364864446614 a86.0,86.0 0 0,1 29.32050498858742,28.57503671076993" fill="none" id="id26" stroke="none" /><text fill="#e1ed5e" style="font-size:6.75px; font-family:Arial;" text-anchor="middle"><textPath startOffset="20.669276256404974" xlink:href="#id26">February</textPath></text><path d="M 110.96478420261332 82.08984904055464 l 31.374182019053844 -51.24736846680891 a81.0885352803478,81.0885352803478 0 0,0 1.1809420396491095,0.7369951748366581 l -32.24928818749267 50.701237495130705" fill="#42ffd9" stroke="none" /><path d="M 111.5731344415666 82.4767994020092 l 33.081671279936806 -50.08986674111881 a81.02825771931779,81.02825771931779 0 0,0 1.1540882215657515,0.7765220607903087 l -33.93665578959956 49.51459500627138" fill="#42ffd7" stroke="none" /><path d="M 112.16784306229584 82.88440491214696 l 34.19603358887941 -48.10100372937007 a80.01758443874708,80.01758443874708 0 0,0 1.1126978171485062,0.805507410806714 l -35.01671241640188 47.50689554719028" fill="#3effb8" stroke="none" /><path d="M 112.45986205192187 83.09580414077388 l 35.20213116391403 -47.75845168889205 a80.33009140564039,80.33009140564039 0 0,0 1.102997226540064,0.8277096818249079 l -36.01678137936486 47.14712297980313" fill="#3fffc2" stroke="none" /><path d="M 113.03279911837588 83.53348406188908 l 39.09839735512764 -49.399547814332756 a84.0,84.0 0 0,0 1.122996918578962,0.904606824826367 l -39.94064504406186 48.72109269571298" fill="#4dd2ff" stroke="none" /><line stroke="#e1ed5e" stroke-width="0.3" x1="172.87174338648825" x2="177.1583165268699" y1="56.24261187166439" y2="53.66864786411523" /><path d="M 173.72905801456457 55.72781907015455 a86.0,86.0 0 0,1 12.242430191666344,42.057860355516425" fill="none" id="id27" stroke="none" /><text fill="#e1ed5e" style="font-size:6.75px; font-family:Arial;" text-anchor="middle"><textPath startOffset="22.145653131862474" xlink:href="#id27">March</textPath></text><line stroke="#e1ed5e" stroke-width="0.3" x1="184.99686870605535" x2="189.99668451229388" y1="99.2704041080226" y2="99.22748670261217" /><path d="M 185.99683186730306 99.26182062694052 a86.0,86.0 0 0,1 -10.086455211305974,41.156179273409016" fill="none" id="id28" stroke="none" /><text fill="#e1ed5e" style="font-size:6.75px; font-family:Arial;" text-anchor="middle"><textPath startOffset="21.40746469413373" xlink:href="#id28">April</textPath></text><line stroke="#e1ed5e" stroke-width="0.3" x1="174.33088141563837" x2="178.70328620479359" y1="141.23008692659167" y2="143.65538615756765" /><path d="M 175.20536237346943 141.71514677278685 a86.0,86.0 0 0,1 -30.301960400862466,31.631185727798858" fill="none" id="id29" stroke="none" /><text fill="#e1ed5e" style="font-size:6.75px; font-family:Arial;" text-anchor="middle"><textPath startOffset="22.145653131862474" xlink:href="#id29">May</textPath></text><line stroke="#e1ed5e" stroke-width="0.3" x1="143.1302829299769" x2="145.66735839644613" y1="173.24464959558577" y2="177.55315839532614" /><path d="M 143.63769802327073 174.10635135553383 a86.0,86.0 0 0,1 -40.68552437913181,11.842963189579606" fill="none" id="id30" stroke="none" /><text fill="#e1ed5e" style="font-size:6.75px; font-family:Arial;" text-anchor="middle"><textPath startOffset="21.407464694133747" xlink:href="#id30">June</textPath></text><line stroke="#e1ed5e" stroke-width="0.3" x1="101.45913802915013" x2="101.54496967792366" y1="184.9874750549273" y2="189.98673829345242" /><path d="M 101.47630435890484 185.9873277026323 a86.0,86.0 0 0,1 -42.54439059252881,-10.42667462771756" fill="none" id="id31" stroke="none" /><text fill="#e1ed5e" style="font-size:6.75px; font-family:Arial;" text-anchor="middle"><textPath startOffset="22.145653131862474" xlink:href="#id31">July</textPath></text><line stroke="#e1ed5e" stroke-width="0.3" x1="58.13341422392154" x2="55.67067388415222" y1="173.97424548756322" y2="178.32567169271397" /><path d="M 57.64086615596768 174.84453072859336 a86.0,86.0 0 0,1 -31.369924170532247,-30.572349798747897" fill="none" id="id32" stroke="none" /><text fill="#e1ed5e" style="font-size:6.75px; font-family:Arial;" text-anchor="middle"><textPath startOffset="22.145653131862474" xlink:href="#id32">August</textPath></text><line stroke="#e1ed5e" stroke-width="0.3" x1="26.387840678322732" x2="22.057713659400548" y1="142.50000000000003" y2="145.00000000000006" /><path d="M 25.521815274538298 143.00000000000003 a86.0,86.0 0 0,1 -11.493303480769221,-40.785679425670985" fill="none" id="id33" stroke="none" /><text fill="#e1ed5e" style="font-size:6.75px; font-family:Arial;" text-anchor="middle"><textPath startOffset="21.40746469413373" xlink:href="#id33">September</textPath></text><line stroke="#e1ed5e" stroke-width="0.3" x1="15.003131293944662" x2="10.003315487706104" y1="100.72959589197737" y2="100.7725132973878" /><path d="M 14.003168132696942 100.73817937305945 a86.0,86.0 0 0,1 10.791469493833604,-42.45332614584628" fill="none" id="id34" stroke="none" /><text fill="#e1ed5e" style="font-size:6.75px; font-family:Arial;" text-anchor="middle"><textPath startOffset="22.145653131862435" xlink:href="#id34">October</textPath></text><line stroke="#e1ed5e" stroke-width="0.3" x1="26.387840678322718" x2="22.05771365940052" y1="57.49999999999999" y2="54.99999999999999" /><path d="M 25.521815274538284 56.99999999999999 a86.0,86.0 0 0,1 29.574782752854787,-30.34633250058573" fill="none" id="id35" stroke="none" /><text fill="#e1ed5e" style="font-size:6.75px; font-family:Arial;" text-anchor="middle"><textPath startOffset="21.40746469413373" xlink:href="#id35">November</textPath></text><line stroke="#e1ed5e" stroke-width="0.3" x1="56.869717070023135" x2="54.33264160355391" y1="26.7553504044142" y2="22.446841604673864" /><path d="M 56.362301976729285 25.89364864446614 a86.0,86.0 0 0,1 42.16139366436587,-11.88097634709845" fill="none" id="id36" stroke="none" /><text fill="#e1ed5e" style="font-size:6.75px; font-family:Arial;" text-anchor="middle"><textPath startOffset="22.145653131862474" xlink:href="#id36">December</textPath></text></svg>