<?xml version="1.0" encoding="utf-8" ?>
<svg baseProfile="full" height="200mm" version="1.1" viewBox="0,0,200,200" width="200mm" xmlns="http://www.w3.org/2000/svg" xmlns:ev="http://www.w3.org/2001/xml-events" xmlns:xlink="http://www.w3.org/1999/xlink"><defs /><rect fill="#1a1a1a" height="200" width="200" x="0" y="0" /><text alignment-baseline="middle" fill="#e1ed5e" style="dominant-baseline: central; font-size:9.0px; font-family:Arial;" text-anchor="middle" x="100.0" y="100.0">2023</text><line stroke="#e1ed5e" stroke-width="0.3" x1="100.0" x2="100.0" y1="15.0" y2="10.0" /><path d="M 100.0 14.0 a86.0,86.0 0 0,1 42.46469731375804,11.215312516191453" fill="none" id="id13" stroke="none" /><text fill="#e1ed5e" style="font-size:6.75px; font-family:Arial;" text-anchor="middle"><textPath startOffset="22.20632615414155" xlink:href="#id13">January</textPath></text><path d="M 105.01212808612495 79.60689891045804 l 3.1877457262919036 -12.970143565162973 a34.35613517887681,34.35613517887681 0 0,0 0.5730785129664888,0.1460904730805265 l -3.4105331279434172 12.913350095913577" fill="#ff7a0b" stroke="none" /><path d="M 105.71112130821622 79.79150937346287 l 4.045972199031472 -14.316451506944922 a35.877186386748036,35.877186386748036 0 0,0 0.5928445065124505,0.1730675683177485 l -4.29180692326735 14.244685609708469" fill="#ff900d" stroke="none" /><path d="M 106.0581310904928 79.89281104454417 l 3.940919668309114 -13.080076222404415 a34.660865339208016,34.660865339208016 0 0,0 0.5697827480761276,0.17703427338755093 l -4.16548778909596 13.010301814134342" fill="#ff7f0b" stroke="none" /><path d="M 106.40334571778207 80.00007090966166 l 4.821291194902251 -15.058609400730061 a36.811595930512446,36.811595930512446 0 0,0 0.6018120582674307,0.19840797368802665 l -5.0797860754121 14.973387702782798" fill="#ff9e0e" stroke="none" /><path d="M 106.74666289553966 80.11325718540242 l 5.755624697052665 -16.965517598827205 a38.91524498993631,38.91524498993631 0 0,0 0.6324987348262758,0.2206663891426735 l -6.046805435942215 16.863930356512324" fill="#ffbb11" stroke="none" /><path d="M 107.4271985657038 80.35727306442388 l 6.477273384539748 -17.130457904693532 a39.31413821402864,39.31413821402864 0 0,0 0.6309298300789321,0.24479097198760533 l -6.771186379618348 17.016424228815378" fill="#ffc011" stroke="none" /><path d="M 107.76421540070413 80.48803036053334 l 6.312405263194713 -15.863477955067392 a38.0732654474098,38.0732654474098 0 0,0 0.6068445753662457,0.24754713925174687 l -6.584533708149347 15.752469929632065" fill="#ffaf10" stroke="none" /><path d="M 108.43124777332544 80.76684994638697 l 6.6067729306746115 -15.071203997566215 a37.45571750163908,37.45571750163908 0 0,0 0.5882650189379688,0.2639373664837489 l -6.865220068079361 14.955246300565936" fill="#ffa70f" stroke="none" /><path d="M 109.08828744355905 81.06846463323043 l 12.659833445077643 -26.37131429780599 a50.25265117302658,50.25265117302658 0 0,0 0.7765918673594787,0.38107025661184596 l -13.111896579447555 26.149488881059316" fill="#b0ff20" stroke="none" /><path d="M 109.41281617654863 81.2277094730956 l 7.446236681020458 -14.850276015850365 a37.61255965998964,37.61255965998964 0 0,0 0.5762593621687576,0.2951824273378955 l -7.70075653077797 14.71990106319997" fill="#ffa90f" stroke="none" /><path d="M 109.73455568895987 81.39251694778311 l 7.406592290799543 -14.157609749157293 a36.97796993274067,36.97796993274067 0 0,0 0.5614575658276921,0.299911187158297 l -7.649194903155546 14.028019835497243" fill="#ffa00e" stroke="none" /><path d="M 110.36928655335952 81.73862282372117 l 9.64836985821281 -16.991768933223263 a40.539991105446305,40.539991105446305 0 0,0 0.6038591277909586,0.34979418322624956 l -9.939425718469098 16.823170592606964" fill="#ffd113" stroke="none" /><line stroke="#e1ed5e" stroke-width="0.3" x1="143.23703022742887" x2="145.7803849466894" y1="26.81831364943548" y2="22.513508569990506" /><path d="M 143.74570117128098 25.957352633546492 a86.0,86.0 0 0,1 28.547481713284135,27.462654790039103" fill="none" id="id14" stroke="none" /><text fill="#e1ed5e" style="font-size:6.75px; font-family:Arial;" text-anchor="middle"><textPath startOffset="19.985693538727396" xlink:href="#id14">February</textPath></text><path d="M 110.68208982089419 81.91981866633111 l 7.546875815299048 -12.773613172245811 a35.83645941745258,35.83645941745258 0 0,0 0.5283965356235953,0.31835300044402576 l -7.765634417140281 12.64181356234317" fill="#ff900d" stroke="none" /><path d="M 110.99172775467656 82.1063720568725 l 15.059570608222396 -24.515741242967064 a49.77172632283562,49.77172632283562 0 0,0 0.7261477951755293,0.4547136827219897 l -15.479337555770188 24.25288321892213" fill="#b6ff1f" stroke="none" /><path d="M 111.2981086023043 82.29822771554956 l 8.67097758193821 -13.58560764832263 a37.11690377835139,37.11690377835139 0 0,0 0.5356021783634529,0.3483705555514447 l -8.903546786085943 13.434338168611658" fill="#ffa20f" stroke="none" /><path d="M 111.60114157652 82.49532879139004 l 8.734245679594002 -13.178883980345102 a36.81044055549697,36.81044055549697 0 0,0 0.5251540565359019,0.35458636321023623 l -8.959804430536446 13.026585704836195" fill="#ff9e0e" stroke="none" /><path d="M 111.90073688211348 82.69761687909136 l 17.346372565409293 -25.219747891059097 a51.60935028494666,51.60935028494666 0 0,0 0.7276153107472542,0.5097410240096827 l -17.7779190157402 24.91742202428548" fill="#a0ff22" stroke="none" /><path d="M 112.48926042617603 83.11751280151076 l 10.314200216978435 -13.942327022090009 a38.34275666976906,38.34275666976906 0 0,0 0.5272199268524872,0.39709111848994255 l -10.552666297589305 13.762719314094218" fill="#ffb310" stroke="none" /><path d="M 112.77801427241765 83.33499621200491 l 13.673367519733734 -17.832717717562744 a43.47146636345714,43.47146636345714 0 0,0 0.5899025091936739,0.4604282653042176 l -13.978302584086839 17.5947110630353" fill="#fff817" stroke="none" /><path d="M 113.34407831869373 83.78471172551755 l 8.968713916899683 -10.89848831373821 a35.11435003278147,35.11435003278147 0 0,0 0.4634132121983217,0.38809523816556574 l -9.154984666057121 10.742491918178825" fill="#ff850c" stroke="none" /><path d="M 113.89432698308785 84.25364557470407 l 13.926305893576131 -15.782595925823191 a42.048333188147325,42.048333188147325 0 0,0 0.5385971246435478,0.48355781640649653 l -14.19591400581567 15.540539100647397" fill="#ffe515" stroke="none" /><path d="M 114.16331599549186 84.49514656593476 l 13.586746804923877 -14.873672092266494 a41.145118769800696,41.145118769800696 0 0,0 0.5188049081222808,0.48217262069819905 l -13.840759596841004 14.637594885493655" fill="#ffd914" stroke="none" /><path d="M 114.68862486808459 84.99185889309783 l 18.853626603859308 -19.26374258916338 a47.954610267249244,47.954610267249244 0 0,0 0.5849644936856097,0.5824524702486197 l -19.18242689771224 18.93635426826464" fill="#cdff1d" stroke="none" /><path d="M 114.94478906791727 85.2469230424477 l 14.814945202712376 -14.624898732545022 a41.81754702880643,41.81754702880643 0 0,0 0.5012843329250691,0.5166175692161582 l -15.064493799340555 14.36771696777875" fill="#ffe215" stroke="none" /><path d="M 115.19652480421416 85.50635884689758 l 21.397592612003166 -20.407891465596606 a50.56922392726639,50.56922392726639 0 0,0 0.5953506979720674,0.635078614969628 l -21.7457106319457 20.036543433748925" fill="#adff20" stroke="none" /><path d="M 115.68641384162765 86.03803664274999 l 28.920447814355256 -25.74114368879813 a59.71690561227999,59.71690561227999 0 0,0 0.6768147341750618,0.773716240418965 l -29.359254412108168 25.239511892176214" fill="#45ff2d" stroke="none" /><path d="M 115.9244219780498 86.31012108654704 l 15.54425561670304 -13.363058168500396 a41.49866352453567,41.49866352453567 0 0,0 0.4610094168925463,0.5456897397454078 l -15.771975647082705 13.093509479125881" fill="#ffde14" stroke="none" /><path d="M 116.15771136456269 86.58626213691792 l 11.14981425732921 -9.256303835077015 a35.49129113157979,35.49129113157979 0 0,0 0.38618159722481715,0.4734129755715771 l -11.307494346630435 9.063006689897335" fill="#ff8b0c" stroke="none" /><path d="M 116.38621287248628 86.86637796730983 l 18.44606856311092 -14.784605471821163 a44.639839347854995,44.639839347854995 0 0,0 0.4754056149089891,0.6037168527383456 l -18.69782825861387 14.46489622512978" fill="#f7ff19" stroke="none" /><path d="M 116.82858285166822 87.43820079747576 l 23.343099478133176 -17.424600216992697 a50.129314890124746,50.129314890124746 0 0,0 0.5102147048141443,0.695932283975675 l -23.639576795460947 17.02020548934553" fill="#b2ff20" stroke="none" /><path d="M 117.04232023915458 87.72973835380427 l 23.758890461462165 -17.106109866170826 a50.2763363608438,50.2763363608438 0 0,0 0.4996208057620608,0.7066781978155325 l -24.049823887028108 16.6946051680235" fill="#b0ff20" stroke="none" /><path d="M 117.2510076193507 88.02491185347247 l 18.689230921019448 -12.973455963173441 a43.75077827344792,43.75077827344792 0 0,0 0.4241232411631396,0.6223485223477389 l -18.90977862785132 12.649829417555296" fill="#fffc17" stroke="none" /><path d="M 117.65298651832404 88.62581576622439 l 27.133724251725656 -17.482819593570586 a53.27828949479852,53.27828949479852 0 0,0 0.49009024998162276,0.7752050800428183 l -27.430642097953235 17.01316686581356" fill="#8dff24" stroke="none" /><line stroke="#e1ed5e" stroke-width="0.3" x1="172.23445277983987" x2="176.4835382374775" y1="55.19839476539836" y2="52.563006222186495" /><path d="M 173.08426987136738 54.67131705675599 a86.0,86.0 0 0,1 12.851231095245387,41.99856678651699" fill="none" id="id15" stroke="none" /><text fill="#e1ed5e" style="font-size:6.75px; font-family:Arial;" text-anchor="middle"><textPath startOffset="22.20632615414155" xlink:href="#id15">March</textPath></text><path d="M 117.84615892207809 88.93136811851018 l 16.178801354077816 -10.034495224095192 a40.03798066122296,40.03798066122296 0 0,0 0.3582144778459752,0.5888104154236807 l -16.349131630210017 9.754517035464431" fill="#ffca12" stroke="none" /><path d="M 118.03404312379186 89.2402003453031 l 23.753630549865292 -14.172324200059847 a48.66025555794985,48.66025555794985 0 0,0 0.4229742328526301,0.7230000730571974 l -23.994064457188248 13.761344714648756" fill="#c4ff1e" stroke="none" /><path d="M 118.21658344932153 89.55222093294921 l 18.717535109389253 -10.735090476581586 a42.57749494523431,42.57749494523431 0 0,0 0.3591560896408722,0.6388986077576804 l -18.89954884032256 10.411308358889112" fill="#ffec16" stroke="none" /><path d="M 118.56541770881063 90.18545643968196 l 30.70927830776394 -16.234353268251233 a55.73634984021897,55.73634984021897 0 0,0 0.4410883606443833,0.8520423171595505 l -30.98417610156844 15.703338228831338" fill="#70ff27" stroke="none" /><path d="M 118.89224826269711 90.83032412892265 l 31.314855804672334 -15.199200946630805 a55.808560778686086,55.808560778686086 0 0,0 0.41203143153426747,0.8678432759269434 l -31.571845430048356 14.65791525506332" fill="#70ff27" stroke="none" /><path d="M 119.196687751892 91.48605970444005 l 33.070765952703745 -14.667245229427962 a57.177391328268634,57.177391328268634 0 0,0 0.39128201527774986,0.9031328387568222 l -33.31833867782417 14.095813246084537" fill="#60ff29" stroke="none" /><path d="M 119.34039704204932 91.81776055985345 l 17.08093898157343 -7.2263424740404165 a39.54665743589273,39.54665743589273 0 0,0 0.2598371943949475,0.6292163763287493 l -17.20279786285457 6.931251527258365" fill="#ffc412" stroke="none" /><path d="M 119.47837535516314 92.15188598940014 l 11.142569118768444 -4.489499315039331 a33.01301172338855,33.01301172338855 0 0,0 0.2078349089363337,0.5289171736057721 l -11.218197577586478 4.297033136537774" fill="#ff6709" stroke="none" /><path d="M 119.61058180528143 92.48833698450437 l 30.814303709148334 -11.803151370956368 a53.99751044193095,53.99751044193095 0 0,0 0.3250017881997928,0.870843211652333 l -31.012910085849754 11.2709850222747" fill="#84ff25" stroke="none" /><path d="M 119.7369772167798 92.82701384747503 l 5.676470149642142 -2.062992794255637 a27.039722893389147,27.039722893389147 0 0,0 0.15521691859783449,0.43881913061112526 l -5.711140149049786 1.9649760372178975" fill="#ff0d01" stroke="none" /><path d="M 119.85752413597 93.16781622104841 l 22.34746470565536 -7.68887323601953 a44.63319594151602,44.63319594151602 0 0,0 0.2437030016318608,0.7286409557757288 l -22.47650500105899 7.3030591773214875" fill="#f7ff19" stroke="none" /><path d="M 119.97218684219823 93.5106431181261 l 25.28675489302713 -8.216164718558334 a47.58806754359019,47.58806754359019 0 0,0 0.24642578016350686,0.7812370650352878 l -25.42443615695884 7.7796774870966265" fill="#d1ff1c" stroke="none" /><path d="M 120.08093135843002 93.85539295169968 l 21.8724725613207 -6.69280456494494 a43.87353686884201,43.87353686884201 0 0,0 0.21475908871282232,0.7240608846777765 l -21.984437547145223 6.3153142935206334" fill="#fffd18" stroke="none" /><path d="M 120.18372546131832 94.20196356495316 l 21.468071164550327 -6.166981365298026 a43.33628748664671,43.33628748664671 0 0,0 0.1997869496784179,0.7187399563517033 l -21.57104488479511 5.7965301055273715" fill="#fff617" stroke="none" /><path d="M 120.28053869075195 94.5502522615342 l 5.05732631270316 -1.358995096511202 a26.236737257634875,26.236737257634875 0 0,0 0.11344723727373057,0.4371584832562902 l -5.079969881847193 1.2717401877060615" fill="#ff0000" stroke="none" /><path d="M 120.37134235888165 94.90015583598534 l 34.209240092373065 -8.564079399726035 a56.26493390979822,56.26493390979822 0 0,0 0.22711528052588856,0.9415394626481223 l -34.351588173159776 7.973954705418506" fill="#6aff28" stroke="none" /><path d="M 120.53481517161879 95.60439243477599 l 25.273213110156522 -5.409891728563601 a46.84573909614829,46.84573909614829 0 0,0 0.1619985979306974,0.78996269614112 l -25.362591004002216 4.974053376259069" fill="#daff1b" stroke="none" /><path d="M 120.6074358757038 95.95851677861258 l 19.27704307311344 -3.7805696258312382 a40.644263700592816,40.644263700592816 0 0,0 0.12873446558389118,0.6877046627720577 l -19.33926326260719 3.448186885596618" fill="#ffd313" stroke="none" /><path d="M 120.67395015179393 96.31383870115 l 24.63402994323866 -4.392242756936261 a46.02253439762323,46.02253439762323 0 0,0 0.13234358001876054,0.7810993008112438 l -24.70598538477764 3.967557667809179" fill="#e5ff1a" stroke="none" /><path d="M 120.78858239683441 97.02765380044208 l 28.607878586636392 -4.090347170923555 a49.89881757453774,49.89881757453774 0 0,0 0.11425403767937774,0.8513252899818211 l -28.674048623373604 3.5973035388770693" fill="#b5ff20" stroke="none" /><path d="M 120.83666639777658 97.38593545837742 l 45.254842317093306 -5.677447456300297 a66.60958411084265,66.60958411084265 0 0,0 0.13293257888872229,1.1388851553607358 l -45.34586524898562 4.897618562614709" fill="#36ff6d" stroke="none" /><path d="M 120.91429891909075 98.10471618934814 l 25.85302720802516 -2.342838462492553 a46.95896584766473,46.95896584766473 0 0,0 0.06602322409309612,0.8056505646299663 l -25.889524915937752 1.897473980654818" fill="#d9ff1c" stroke="none" /><path d="M 120.94382443527127 98.46500227214037 l 26.07907569253877 -1.9113663818395121 a47.14902503771016,47.14902503771016 0 0,0 0.05235654279035317,0.809932543412411 l -26.10811282633354 1.4621747741740658" fill="#d7ff1c" stroke="none" /><path d="M 120.96714384426684 98.82574320788733 l 26.27220778047232 -1.4713648486963795 a47.313377133661305,47.313377133661305 0 0,0 0.03854100785927333,0.8135397614820203 l -26.29364239656509 1.0189139805913592" fill="#d5ff1c" stroke="none" /><path d="M 120.98425023603335 99.18683210126433 l 26.232742073337878 -1.0165540112184266 a47.25243110159506,47.25243110159506 0 0,0 0.024499947978464148,0.8130339982737967 l -26.24635371577199 0.5648498655196308" fill="#d5ff1c" stroke="none" /><line stroke="#e1ed5e" stroke-width="0.3" x1="184.98032266829074" x2="189.97916517819016" y1="98.17113171792111" y2="98.06355123074" /><path d="M 185.9800911702706 98.14961562048488 a86.0,86.0 0 0,1 -9.607161424134198,41.387399972396054" fill="none" id="id16" stroke="none" /><text fill="#e1ed5e" style="font-size:6.75px; font-family:Arial;" text-anchor="middle"><textPath startOffset="21.466115282336823" xlink:href="#id16">April</textPath></text><path d="M 120.99980553446 99.90962569577887 l 61.024610145579565 -0.2626241787440574 a82.02517525480147,82.02517525480147 0 0,0 -0.006076513689185,1.4119677811091615 l -61.020089334600875 -0.7878530805687888" fill="#4ae5ff" stroke="none" /><path d="M 120.9904718944345 100.63252640178507 l 21.13579062004025 0.6369054329512905 a42.14538468944711,42.14538468944711 0 0,0 -0.028092642657991218,0.7249462801512305 l -21.121695844531057 -1.0006289601165272" fill="#ffe715" stroke="none" /><path d="M 120.9764740272857 100.99374915477107 l 25.985568814972478 1.231052321402257 a47.01471269216133,47.01471269216133 0 0,0 -0.04525423359442723,0.8080447409030942 l -25.96052823049052 -1.6781687786407746" fill="#d8ff1c" stroke="none" /><path d="M 120.92983693683757 101.71520430193887 l 25.988537386605206 2.12976581046119 a47.07565872422758,47.07565872422758 0 0,0 -0.07313630340002597,0.8070530136694183 l -25.948026486928104 -2.5768002126791787" fill="#d8ff1c" stroke="none" /><path d="M 120.89721153311464 102.0752229133903 l 26.121059318966847 2.5939834477364783 a47.24954266405637,47.24954266405637 0 0,0 -0.08733897625459648,0.808650448701111 l -26.0725380412112 -3.0432302183223805" fill="#d5ff1c" stroke="none" /><path d="M 120.8583938346157 102.4346265915055 l 32.33777369498847 3.7745189956691996 a53.55731256103544,53.55731256103544 0 0,0 -0.11476182066863895,0.914764625891624 l -32.26801036507298 -4.330601375848219" fill="#89ff24" stroke="none" /><path d="M 120.70491114924044 103.5080841355445 l 22.389509144089025 3.793509726502189 a43.70860708538313,43.70860708538313 0 0,0 -0.13206983904600492,0.7407177949170025 l -22.320892862703833 -4.178346272152409" fill="#fffb17" stroke="none" /><path d="M 120.64145759157962 103.86396538481128 l 14.673717889008822 2.7468378983442308 a35.92860057493661,35.92860057493661 0 0,0 -0.1190264357185206,0.6069132314103574 l -14.624261520314638 -2.999014856822533" fill="#ff910d" stroke="none" /><path d="M 120.5718875245553 104.21870165774334 l 23.19497743723923 4.7566218534395635 a44.67767787961176,44.67767787961176 0 0,0 -0.16097997353907184,0.7520448433818415 l -23.109663424975718 -5.155180516237574" fill="#f6ff19" stroke="none" /><path d="M 120.49622156327973 104.57218783832717 l 20.48024640537501 4.568624185267415 a41.98363218728079,41.98363218728079 0 0,0 -0.16341515881753135,0.7039882272138662 l -20.398570680626925 -4.9204810698298465" fill="#ffe415" stroke="none" /><path d="M 120.41448212921028 104.9243191809786 l 32.12352994819391 7.7487400210994775 a54.04488081756537,54.04488081756537 0 0,0 -0.22592995505019717,0.9024778631336133 l -31.98538867884865 -8.300545723630487" fill="#84ff25" stroke="none" /><path d="M 120.23288151984713 105.62410040840565 l 25.27285055329713 7.025052214087571 a47.23105666380879,47.23105666380879 0 0,0 -0.22447653441418947,0.7814322648504697 l -25.148181381996842 -7.459041954442623" fill="#d6ff1c" stroke="none" /><path d="M 120.02730092923936 106.31721596034902 l 25.15572091493415 7.9348746103823204 a47.3775004470201,47.3775004470201 0 0,0 -0.25202066321016037,0.7756398461899051 l -25.015408000707744 -8.36671335655002" fill="#d4ff1c" stroke="none" /><path d="M 119.79798401119884 107.00284435728193 l 59.393952033596506 21.00853307184577 a84.0,84.0 0 0,0 -0.49390295597909306,1.3590088119754755 l -59.02352481661219 -22.027789680827375" fill="#4dd2ff" stroke="none" /><path d="M 119.54520255179757 107.68017299344265 l 23.350903351721875 9.175600857505055 a46.08896846101297,46.08896846101297 0 0,0 -0.2964999595550639,0.7358885838309656 l -23.18950077790942 -9.576188809178834" fill="#e4ff1a" stroke="none" /><path d="M 119.41010516605496 108.01547362559984 l 24.141001822952813 9.969114631374476 a47.1184075998001,47.1184075998001 0 0,0 -0.3160276894386999,0.7469961047627856 l -23.965823152321803 -10.383185261803424" fill="#d7ff1c" stroke="none" /><path d="M 119.12269723197855 108.67885076344098 l 23.296688318260454 10.573219810146092 a46.58375781138961,46.58375781138961 0 0,0 -0.3376776372323468,0.7273275893856035 l -23.111236064188276 -10.972667466810528" fill="#deff1b" stroke="none" /><path d="M 118.97047184881838 109.00673069616215 l 23.210388962976754 11.01974291460374 a46.69351843785962,46.69351843785962 0 0,0 -0.3509723725055683,0.7231070419443328 l -23.017263333856473 -11.417638912513347" fill="#dcff1b" stroke="none" /><path d="M 118.81262510543309 109.33194174019688 l 23.04391536496714 11.430859566206747 a46.723269344508076,46.723269344508076 0 0,0 -0.3635989918197117,0.7174153055055831 l -22.84373770336116 -11.825829083415025" fill="#dcff1b" stroke="none" /><path d="M 118.64920377521936 109.65438752849418 l 23.12307688723378 11.970438406445911 a47.037820192470804,47.037820192470804 0 0,0 -0.37842484476602,0.7158371931710432 l -22.913599534242863 -12.366690614703089" fill="#d8ff1c" stroke="none" /><line stroke="#e1ed5e" stroke-width="0.3" x1="174.80103733775053" x2="179.2010983576182" y1="140.37084112569926" y2="142.7455964860345" /><path d="M 175.68104954172406 140.8457921977663 a86.0,86.0 0 0,1 -30.038265399797805,32.042727171017184" fill="none" id="id17" stroke="none" /><text fill="#e1ed5e" style="font-size:6.75px; font-family:Arial;" text-anchor="middle"><textPath startOffset="22.206326154141568" xlink:href="#id17">May</textPath></text><path d="M 118.30583269289576 110.29060199501025 l 36.969622464688044 20.782429134596956 a63.410639536749635,63.410639536749635 0 0,0 -0.5430608068278773,0.9468722914360366 l -36.60640966170779 -21.41572127189131" fill="#32ff45" stroke="none" /><path d="M 118.12598468904814 110.60418214915192 l 19.357924375861046 11.324899564500207 a43.42727326911527,43.42727326911527 0 0,0 -0.3830267393199674,0.6419748467571479 l -19.16011676084285 -11.656436505143459" fill="#fff817" stroke="none" /><path d="M 117.94076556474637 110.91462005526583 l 26.89202401137397 16.360295414482884 a52.47761460907519,52.47761460907519 0 0,0 -0.4761352956621865,0.7676817013860578 l -26.60642407604382 -16.820773447234217" fill="#96ff23" stroke="none" /><path d="M 117.55443506779139 111.5257021239791 l 21.512635785013256 14.124534968068998 a46.73511193841668,46.73511193841668 0 0,0 -0.44731487466209946,0.6686750451406529 l -21.266317804940435 -14.492746927415459" fill="#dcff1b" stroke="none" /><path d="M 117.35343817320211 111.8261652097733 l 19.136511484037555 13.04130882250364 a44.15775912264856,44.15775912264856 0 0,0 -0.4334590670140799,0.6244301149386351 l -18.90919150986134 -13.368780199629294" fill="#fdff18" stroke="none" /><path d="M 116.93607887273984 112.41649034213515 l 22.65616262018611 16.610103582841603 a49.09265465749091,49.09265465749091 0 0,0 -0.5055111170338631,0.6772147507129599 l -22.366890236457156 -16.99763121306388" fill="#bfff1e" stroke="none" /><path d="M 116.71984013943494 112.70617746262583 l 20.113850171819738 15.285442181772313 a46.26285240084178,46.26285240084178 0 0,0 -0.487287027005377,0.6298841693567241 l -19.847756327596294 -15.629404345242289" fill="#e2ff1b" stroke="none" /><path d="M 116.498646956653 112.99209946851258 l 19.81053979884408 15.600097648475465 a46.21548202520735,46.21548202520735 0 0,0 -0.4975472700785831,0.6207667208131271 l -19.539074616710643 -15.938792202866843" fill="#e2ff1b" stroke="none" /><path d="M 116.27256486870786 113.27417163493432 l 4.936135439493877 4.026599959243342 a27.370160147814644,27.370160147814644 0 0,0 -0.30094664103260604,0.36250961600514015 l -4.866092798567728 -4.110970832362253" fill="#ff1202" stroke="none" /><path d="M 116.0416608686014 113.55231037782055 l 20.622754580163754 17.422508380229004 a47.997070299067914,47.997070299067914 0 0,0 -0.5386128159349169,0.6265283877204079 l -20.319799254658058 -17.77491386711094" fill="#ccff1d" stroke="none" /><path d="M 115.80600337817218 113.82643327865902 l 13.00483674934618 11.376089408091811 a38.2783445126564,38.2783445126564 0 0,0 -0.43808863589185987,0.4921972265702473 l -12.807089263805983 -11.598260804402925" fill="#ffb210" stroke="none" /><path d="M 115.32070863581623 114.36230785411682 l 21.132028866608586 19.810095693275755 a49.96554048168135,49.96554048168135 0 0,0 -0.5936226193804113,0.6224109431484043 l -20.78789969584921 -20.170913753006666" fill="#b4ff20" stroke="none" /><path d="M 115.07121518719521 114.62390073753431 l 18.584545263133325 18.03295499431152 a46.895420221813666,46.895420221813666 0 0,0 -0.5671205527280855,0.5744901257539492 l -18.271384085349705 -18.350185614046133" fill="#daff1c" stroke="none" /><path d="M 114.81725581225074 114.88116024355365 l 17.269894086293256 17.344376350366314 a45.47604201530413,45.47604201530413 0 0,0 -0.5594636962102002,0.5475529782408781 l -16.968780437707263 -17.639079431529765" fill="#ecff1a" stroke="none" /><path d="M 114.29624159901734 115.38237550388516 l 18.12207947923908 19.498875248447668 a47.619840356515724,47.619840356515724 0 0,0 -0.6052265164509553,0.5528600729957469 l -17.783753413321257 -19.807928088029996" fill="#d1ff1d" stroke="none" /><path d="M 114.0293411484842 115.62618273729858 l 38.11272934749437 42.45077991174918 a78.04952982655621,78.04952982655621 0 0,0 -1.0074248529301633,0.8889353014317024 l -37.37636214165762 -43.10053835495317" fill="#45fff0" stroke="none" /><path d="M 113.20401910651253 116.32954008644616 l 16.274631121131367 20.12699611692937 a46.88357762790506,46.88357762790506 0 0,0 -0.6319069220087121,0.5020250761249453 l -15.925766706405303 -20.404155107059438" fill="#daff1c" stroke="none" /><path d="M 112.92097659922987 116.55440617244103 l 16.08838152530433 20.61249785429984 a47.14786966269469,47.14786966269469 0 0,0 -0.6440652056647742,0.4938417353544586 l -15.731187591146064 -20.88637893148167" fill="#d7ff1c" stroke="none" /><path d="M 112.63410532772338 116.77436683061366 l 15.532909913556225 20.623124635911108 a46.81829893953079,46.81829893953079 0 0,0 -0.6479095872030591,0.4793080232822163 l -15.175615355934601 -20.887442607933092" fill="#dbff1b" stroke="none" /><path d="M 112.34349029814194 116.9893568818739 l 15.372727728572517 21.158744513933094 a47.153646537772055,47.153646537772055 0 0,0 -0.6607633127780654,0.4714370793130812 l -15.006237087945566 -21.420225855090397" fill="#d7ff1c" stroke="none" /><path d="M 112.04921762599082 117.19931262002967 l 15.057447823485239 21.493325161401255 a47.242899257717404,47.242899257717404 0 0,0 -0.670046299731706,0.460863954763827 l -14.68524463913065 -21.749329905530175" fill="#d5ff1c" stroke="none" /><path d="M 111.45004920935366 117.60387380957326 l 14.21151900482309 21.849494498144594 a47.06468266158057,47.06468266158057 0 0,0 -0.6829269184699956,0.43587627093636555 l -13.833310284306165 -22.09088519790477" fill="#d8ff1c" stroke="none" /><path d="M 111.1453310114006 117.79835938074945 l 15.725928125681683 25.11327120660767 a50.63074764684037,50.63074764684037 0 0,0 -0.7426344475335784,0.4561867327563882 l -15.291314478215796 -25.380246406192438" fill="#acff21" stroke="none" /><line stroke="#e1ed5e" stroke-width="0.3" x1="143.8653032363475" x2="146.44561519142675" y1="172.8068346515853" y2="177.08958963109032" /><path d="M 144.38136562736335 173.6633856474863 a86.0,86.0 0 0,1 -40.68145358897372,12.25698825130547" fill="none" id="id18" stroke="none" /><text fill="#e1ed5e" style="font-size:6.75px; font-family:Arial;" text-anchor="middle"><textPath startOffset="21.466115282336833" xlink:href="#id18">June</textPath></text><path d="M 110.8373102113329 117.98757091392108 l 13.424916710710729 22.282433245739195 a47.014135004653596,47.014135004653596 0 0,0 -0.696776634726543,0.4116679174776243 l -13.039372204955804 -22.51021973551057" fill="#d8ff1c" stroke="none" /><path d="M 109.89434966115114 118.52300852407294 l 12.87656764522382 24.10595748296338 a48.32952945977049,48.32952945977049 0 0,0 -0.7371613315513442,0.38564796827153186 l -12.45971541114598 -24.324034870179627" fill="#c8ff1d" stroke="none" /><path d="M 109.57404056367764 118.69057910512821 l 2.9048570791133637 5.670903592391349 a27.371604366583988,27.371604366583988 0 0,0 -0.4211917615007193,0.21119429301399895 l -2.806811409929884 -5.720065726314651" fill="#ff1202" stroke="none" /><path d="M 109.2508944713604 118.85261126421891 l 11.268726238098301 22.964797173665087 a46.580580530097066,46.580580530097066 0 0,0 -0.7228581481882684,0.34701583914769246 l -10.8717554219098 -23.15536728931234" fill="#deff1b" stroke="none" /><path d="M 108.92500713936063 119.00905698771935 l 11.201116996817593 23.856862856680113 a47.3555483217261,47.3555483217261 0 0,0 -0.7408482476985472,0.34008709420646765 l -10.788800753351625 -24.046137021220655" fill="#d4ff1c" stroke="none" /><path d="M 108.59647513512805 119.15986991738527 l 10.790101392381567 24.049035892470958 a47.358725603018655,47.358725603018655 0 0,0 -0.7466426153198085,0.32730618075235546 l -10.374538102404005 -24.231206626517768" fill="#d4ff1c" stroke="none" /><path d="M 107.93186726928326 119.44442032107085 l 9.797162169476639 24.017060889902158 a46.938457941140065,46.938457941140065 0 0,0 -0.7507447021678211,0.29873681059744683 l -9.382296391266951 -24.182144544905675" fill="#d9ff1c" stroke="none" /><path d="M 107.59598834532513 119.57807347666477 l 10.529891001145195 27.13998104651751 a50.11111773363105,50.11111773363105 0 0,0 -0.8068600560346926,0.30508543292177953 l -10.061160724350229 -27.317214729545917" fill="#b2ff20" stroke="none" /><path d="M 107.2578585660854 119.70592522655815 l 10.219188381508001 27.74627809132466 a50.568357396004785,50.568357396004785 0 0,0 -0.8194010891878623,0.2938080776884125 l -9.740067731690404 -27.918073710053033" fill="#adff20" stroke="none" /><path d="M 106.91757812671514 119.82793768551818 l 6.82236711243159 19.555033206001216 a41.710963683628975,41.710963683628975 0 0,0 -0.6799488255839207,0.23067555884845392 l -6.484748553910443 -19.669571751747792" fill="#ffe115" stroke="none" /><path d="M 106.57524785965236 119.94407469862006 l 8.090402791893878 24.53985021820709 a46.83909568980933,46.83909568980933 0 0,0 -0.7678905172021089,0.24585429442482332 l -7.666790929600828 -24.67547735929162" fill="#dbff1b" stroke="none" /><path d="M 105.88484417918355 120.15858648285463 l 7.510447022670626 25.7271035938302 a47.80094539019124,47.80094539019124 0 0,0 -0.7918313826848264,0.22377945813663128 l -7.066484471881194 -25.852571845305352" fill="#cfff1d" stroke="none" /><path d="M 105.53697534728816 120.25689768951611 l 7.018733323941617 25.67787536253291 a47.619840356515724,47.619840356515724 0 0,0 -0.7925518722091902,0.2093201528423193 l -6.575691008920929 -25.794886864678812" fill="#d1ff1d" stroke="none" /><path d="M 105.18746579009965 120.34920634021253 l 6.99673216173823 27.446532127140507 a49.324307348093406,49.324307348093406 0 0,0 -0.8245302893744992,0.20264948440597835 l -6.523248587620519 -27.562902869860515" fill="#bcff1f" stroke="none" /><path d="M 104.48393922423573 120.51570834832081 l 5.67821865697193 25.979985918360835 a47.593266731159815,47.593266731159815 0 0,0 -0.8018525784739742,0.16803600408580854 l -5.230174617068578 -26.073877903173187" fill="#d1ff1c" stroke="none" /><path d="M 104.13013068566511 120.58985236759428 l 5.083553851040709 25.34293252727614 a46.84776100242537,46.84776100242537 0 0,0 -0.7920224924126553,0.15179299570030474 l -4.646563744056349 -25.426682721324912" fill="#daff1b" stroke="none" /><path d="M 103.7750983002368 120.6578951692458 l 4.862257931958616 26.606993157750136 a48.04761795599489,48.04761795599489 0 0,0 -0.8148670739688372,0.14167508583403957 l -4.403541886517728 -26.68674682210518" fill="#cbff1d" stroke="none" /><path d="M 103.41894727170886 120.7198165907248 l 0.9091025485648456 5.509426315021596 a26.583927449784742,26.583927449784742 0 0,0 -0.4521345471188668,0.07061411764336814 l -0.8141321378374616 -5.524258740012069" fill="#ff0500" stroke="none" /><path d="M 103.06178313531738 120.77559828337769 l 3.0140408185923415 20.451644838747356 a41.67254746436448,41.67254746436448 0 0,0 -0.710559418066603,0.0984770607118681 l -2.661552809338908 -20.500496464951826" fill="#ffe015" stroke="none" /><path d="M 102.70371172650421 120.8252237178851 l 3.907800647072113 30.099667032696214 a51.35227934400375,51.35227934400375 0 0,0 -0.8775678485889523,0.10626124512579838 l -3.3891053754317806 -30.162473806547364" fill="#a3ff21" stroke="none" /><path d="M 101.62511606390274 120.93702456842531 l 2.362848763469472 30.44153196875586 a51.53309553392538,51.53309553392538 0 0,0 -0.8849882524700231,0.061033971339483614 l -1.8384977502205189 -30.47769428461163" fill="#a1ff22" stroke="none" /><path d="M 100.90346689309514 120.98055641714683 l 1.1195714053832284 25.998994775776005 a47.02308916102352,47.02308916102352 0 0,0 -0.8089754816793355,0.027862751288494293 l -0.6718755720292405 -26.014414325490595" fill="#d8ff1c" stroke="none" /><line stroke="#e1ed5e" stroke-width="0.3" x1="102.19456741930631" x2="102.32365962044197" y1="184.97166512339345" y2="189.96999836594603" /><path d="M 102.22038585953345 185.97133177190398 a86.0,86.0 0 0,1 -42.740103519485714,-10.115201625700543" fill="none" id="id19" stroke="none" /><text fill="#e1ed5e" style="font-size:6.75px; font-family:Arial;" text-anchor="middle"><textPath startOffset="22.20632615414155" xlink:href="#id19">July</textPath></text><path d="M 100.54218724476979 120.99299961872073 l 0.6965897111029291 26.971323432364255 a47.98031736134354,47.98031736134354 0 0,0 -0.8258105136253436,0.014217076901623353 l -0.2322195075849175 -26.979317986545038" fill="#ccff1d" stroke="none" /><path d="M 100.18074693466247 120.99922214144158 l 0.20542705262128855 23.866564154528557 a44.86744822590333,44.86744822590333 0 0,0 -0.7723479745674716,0.0 l 0.20542705262127212 -23.866564154528557" fill="#f4ff19" stroke="none" /><path d="M 99.81925306533755 120.99922214144158 l -0.16057324613952798 18.655438179095547 a39.65612921860887,39.65612921860887 0 0,0 -0.6825392210681153,-0.011750531670636865 l 0.4816721571003112 -18.64991017014575" fill="#ffc512" stroke="none" /><path d="M 98.73552117531835 120.96189622390904 l -1.2286566302131994 20.36805383738321 a41.4050781482823,41.4050781482823 0 0,0 -0.7110577653871037,-0.04903870661811271 l 1.5790771563792332 -20.343886786248813" fill="#ffdd14" stroke="none" /><path d="M 98.37488393609728 120.93702456842531 l -2.0728908212160206 26.705887053529953 a47.78621435874395,47.78621435874395 0 0,0 -0.8195465064248745,-0.07071392104619233 l 2.532281645382437 -26.6662488802051" fill="#cfff1d" stroke="none" /><path d="M 97.65516085044442 120.86867818915974 l -3.2319413464403275 28.763740104683052 a49.944743731402816,49.944743731402816 0 0,0 -0.8535142327584047,-0.10334868722838426 l 3.7265830022501216 -28.70384588872932" fill="#b4ff20" stroke="none" /><path d="M 96.93821686468263 120.77559828337769 l -3.730512474966663 25.31323256602986 a46.5866462489283,46.5866462489283 0 0,0 -0.7923371083273328,-0.12374676108508696 l 4.165685446902513 -25.245267497597666" fill="#deff1b" stroke="none" /><path d="M 96.58105272829116 120.7198165907248 l -4.201942330046704 25.464994773041578 a46.80934478316087,46.80934478316087 0 0,0 -0.7938664899639132,-0.1380238651177926 l 4.639657791482667 -25.38889232940278" fill="#dbff1b" stroke="none" /><path d="M 96.22490169976321 120.6578951692458 l -4.674343327717312 25.57869670386885 a47.00229241074499,47.00229241074499 0 0,0 -0.7946350473897862,-0.1522936980796011 l 5.113945989678793 -25.494445807440783" fill="#d8ff1c" stroke="none" /><path d="M 95.86986931433489 120.58985236759428 l -5.090029932918726 25.37521760005889 a46.880689190366375,46.880689190366375 0 0,0 -0.7898470537917464,-0.16552012966112176 l 5.526068448139859 -25.283841489671225" fill="#daff1c" stroke="none" /><path d="M 94.81253420990036 120.34920634021253 l -4.729488699287353 18.55267009358979 a40.14600822516975,40.14600822516975 0 0,0 -0.6681625503650186,-0.17646780238632062 l 5.048141692463862 -18.46851094189989" fill="#ffcc13" stroke="none" /><path d="M 94.46302465271185 120.25689768951611 l -6.86215220725298 25.105026927795848 a47.0259775985622,47.0259775985622 0 0,0 -0.7789938998071632,-0.220151457245253 l 7.293277275164757 -24.98318667721207" fill="#d8ff1c" stroke="none" /><path d="M 93.76903079525671 120.05430185196036 l -11.691519780836414 37.62902031590422 a60.403487215225276,60.403487215225276 0 0,0 -0.9902681585844922,-0.3170525927410043 l 12.337509284511848 -37.42219487650351" fill="#3dff2e" stroke="none" /><path d="M 93.42475214034765 119.94407469862007 l -6.566595860735653 19.917831412226885 a41.97236728087992,41.97236728087992 0 0,0 -0.6842100809771652,-0.2321212080388735 l 6.9084756746500435 -19.80184721728989" fill="#ffe415" stroke="none" /><path d="M 93.08242187328487 119.8279376855182 l -3.539775514048116 10.146101283947166 a31.745854175167693,31.745854175167693 0 0,0 -0.5144044384243186,-0.18444712998567298 l 3.7138995131021613 -10.083666612921535" fill="#ff5407" stroke="none" /><path d="M 92.7421414339146 119.70592522655815 l -12.13618465466072 32.95114463348342 a56.115024001540505,56.115024001540505 0 0,0 -0.9035314608415388,-0.34163828637643956 l 12.701586336262542 -32.73735809700035" fill="#6cff28" stroke="none" /><path d="M 92.06813273071674 119.44442032107085 l -9.879640700897491 24.21925126676619 a47.15682381906461,47.15682381906461 0 0,0 -0.7489593630051394,-0.31306507447855225 l 10.295071523400093 -24.04560114926766" fill="#d7ff1c" stroke="none" /><path d="M 91.7346041902142 119.30500536409082 l -8.20893171693133 19.173125458939342 a41.85654093557868,41.85654093557868 0 0,0 -0.6598969206719971,-0.2892794174397266 l 8.53774931226107 -19.02898148820516" fill="#ffe315" stroke="none" /><path d="M 91.07499286063937 119.00905698771935 l -11.08756520524484 23.615012912656557 a47.088367849397784,47.088367849397784 0 0,0 -0.730738217460163,-0.3507987512692277 l 11.492416090705245 -23.42065988488777" fill="#d7ff1c" stroke="none" /><path d="M 90.7491055286396 118.85261126421891 l -13.802478248884539 28.128388850899036 a52.33232620087937,52.33232620087937 0 0,0 -0.8052850816040599,-0.40378665736034214 l 14.284617238171359 -27.88663435262939" fill="#98ff23" stroke="none" /><line stroke="#e1ed5e" stroke-width="0.3" x1="58.666819895761336" x2="56.23545636021788" y1="174.27360380694188" y2="178.64263932499728" /><path d="M 58.180547188652646 175.14741091055294 a86.0,86.0 0 0,1 -31.652253787137756,-30.449443065178592" fill="none" id="id20" stroke="none" /><text fill="#e1ed5e" style="font-size:6.75px; font-family:Arial;" text-anchor="middle"><textPath startOffset="22.20632615414155" xlink:href="#id20">August</textPath></text><path d="M 89.7882731507175 118.34994917583269 l -15.543515091613873 27.93089906874503 a52.964605178097386,52.964605178097386 0 0,0 -0.7928328070126821,-0.4501911594870269 l 16.02199666554776 -27.65920474346337" fill="#90ff24" stroke="none" /><path d="M 89.4739219176387 118.17145234162733 l -12.91732218698196 22.299521499419885 a46.7706397201425,46.7706397201425 0 0,0 -0.6931678939744983,-0.4095358098321176 l 13.29925795198484 -22.073867117294018" fill="#dbff1b" stroke="none" /><path d="M 88.54995079064634 117.60387380957326 l -11.287572753315466 17.35407444392628 a41.70200952725906,41.70200952725906 0 0,0 -0.5983747897119199,-0.39657018224106316 l 11.584622241767347 -17.157206240593897" fill="#ffe115" stroke="none" /><path d="M 88.24862548938628 117.40417183066458 l -20.766557107378432 30.755953518602286 a58.11035665326371,58.11035665326371 0 0,0 -0.8241795076801437,-0.5668781806523832 l 21.292893499681465 -30.393934548584802" fill="#56ff2a" stroke="none" /><path d="M 87.65650970185807 116.9893568818739 l -18.247240718350763 25.11517222322343 a52.04406013451867,52.04406013451867 0 0,0 -0.7202279083586268,-0.5328073883862302 l 18.676853597127955 -24.79735488609743" fill="#9bff22" stroke="none" /><path d="M 87.36589467227662 116.77436683061367 l -15.652467356309772 20.781861669524204 a47.017023442192276,47.017023442192276 0 0,0 -0.6422777760625352,-0.49247121055536847 l 16.007873860865793 -20.50935111714147" fill="#d8ff1c" stroke="none" /><path d="M 87.07902340077011 116.55440617244103 l -12.81067102808599 16.413082239704558 a41.82072431009899,41.82072431009899 0 0,0 -0.5636686983384073,-0.44781250424202107 l 13.091297219141754 -16.190135821457407" fill="#ffe215" stroke="none" /><path d="M 86.79598089348748 116.32954008644616 l -10.610810316279247 13.122493311441657 a37.87569631976379,37.87569631976379 0 0,0 -0.5034399164293367,-0.4142967772063266 l 10.835120361253272 -12.93790141537815" fill="#ffac10" stroke="none" /><path d="M 86.51685102203217 116.09983520530335 l -16.811173737736375 20.073732570006225 a47.1833974444205,47.1833974444205 0 0,0 -0.6181800747307601,-0.5268264708158729 l 17.154219289044192 -19.781381708967402" fill="#d6ff1c" stroke="none" /><path d="M 86.24171649860922 115.8653595955263 l -9.664186310628883 11.14425291503774 a35.75096166630752,35.75096166630752 0 0,0 -0.46145578812362353,-0.4071810804746081 l 9.854584451659095 -10.976248692790842" fill="#ff8f0d" stroke="none" /><path d="M 85.97065885151581 115.62618273729859 l -8.547625229996507 9.520529324949843 a33.79462292135656,33.79462292135656 0 0,0 -0.42951428968132516,-0.39235111993837285 l 8.710239069144686 -9.371985438424895" fill="#ff720a" stroke="none" /><path d="M 85.70375840098266 115.38237550388516 l -14.230826974739703 15.311991108999633 a41.9039113112131,41.9039113112131 0 0,0 -0.5241264714438569,-0.49559429307503533 l 14.492289280574377 -15.064762179178668" fill="#ffe315" stroke="none" /><path d="M 85.44109423537348 115.13401014063109 l -21.507846101063837 22.357446792979022 a52.02326338424014,52.02326338424014 0 0,0 -0.6400101225183352,-0.6263846091589128 l 21.889506175957965 -21.98391208089754" fill="#9bff22" stroke="none" /><path d="M 85.18274418774928 114.88116024355367 l -11.106063493809907 11.153962152008102 a36.74025152330694,36.74025152330694 0 0,0 -0.4443110148648344,-0.4500847122815274 l 11.296415133730276 -10.96113694574591" fill="#ff9d0e" stroke="none" /><path d="M 84.9287848128048 114.62390073753433 l -18.64839258322707 18.094907322628224 a46.98438409800515,46.98438409800515 0 0,0 -0.5582045723784274,-0.5852752624663093 l 18.957103706984455 -17.771224943579416" fill="#d9ff1c" stroke="none" /><path d="M 84.67929136418377 114.36230785411682 l -18.9246515730263 17.740802882204232 a46.93990215990941,46.93990215990941 0 0,0 -0.54752845916185,-0.5942340042361711 l 19.227226440183877 -17.412417623166718" fill="#d9ff1c" stroke="none" /><path d="M 84.43433777217949 114.09645910891817 l -17.481476664074716 15.831444711565025 a44.58467019086612,44.58467019086612 0 0,0 -0.5102633772248668,-0.5732863135770652 l 17.751398890947918 -15.528184228247097" fill="#f7ff18" stroke="none" /><path d="M 83.95833913139862 113.55231037782056 l -24.131663339373972 20.386903462620282 a52.59055251683776,52.59055251683776 0 0,0 -0.5782556639974707,-0.6965461983202847 l 24.47901500326498 -19.968496007186236" fill="#95ff23" stroke="none" /><path d="M 83.72743513129214 113.27417163493432 l -20.855138658799326 17.012357440934803 a47.91388329795379,47.91388329795379 0 0,0 -0.5158319417886247,-0.6435796601682032 l 21.14488851264281 -16.65084994718834" fill="#cdff1d" stroke="none" /><path d="M 83.28015986056508 112.70617746262583 l -20.745124539220942 15.765176681200247 a47.05572850521065,47.05572850521065 0 0,0 -0.4845367203193681,-0.6491161187269642 l 21.013422526235395 -15.405747682963975" fill="#d8ff1c" stroke="none" /><path d="M 83.06392112726016 112.41649034213515 l -21.00620117868683 15.400453435531158 a47.04677434884073,47.04677434884073 0 0,0 -0.47320140219143253,-0.65723536027968 l 21.268182373253868 -15.03658446980034" fill="#d8ff1c" stroke="none" /><path d="M 82.85270091963577 112.12312394758628 l -21.251201035305034 15.024578680213027 a47.0259775985622,47.0259775985622 0 0,0 -0.46161392199911555,-0.6649892834328978 l 21.50667586446628 -14.656548134593116" fill="#d8ff1c" stroke="none" /><path d="M 82.44556493220864 111.52570212397912 l -9.968098316985825 6.544746754904893 a32.9246255347048,32.9246255347048 0 0,0 -0.3069753121346256,-0.47643250146054883 l 10.079278492497497 -6.372192653522895" fill="#ff6609" stroke="none" /><path d="M 82.24976979558568 111.22182372390057 l -22.045552999637806 13.93735781501689 a47.08172444305882,47.08172444305882 0 0,0 -0.4271777777053438,-0.688746594026542 l 22.282195417011103 -13.555814889625085" fill="#d8ff1c" stroke="none" /><path d="M 82.05923443525364 110.91462005526583 l -17.157860499686574 10.43832425319248 a41.08359505022672,41.08359505022672 0 0,0 -0.36235559516054516,-0.6073288201439673 l 17.33499697054535 -10.141433339162402" fill="#ffd814" stroke="none" /><line stroke="#e1ed5e" stroke-width="0.3" x1="26.63291911575756" x2="22.317208475507996" y1="142.92168965132927" y2="145.44649492493687" /><path d="M 25.769776987707644 143.4266507060508 a86.0,86.0 0 0,1 -11.730757126820373,-40.83630448921669" fill="none" id="id21" stroke="none" /><text fill="#e1ed5e" style="font-size:6.75px; font-family:Arial;" text-anchor="middle"><textPath startOffset="21.46611528233685" xlink:href="#id21">September</textPath></text><path d="M 81.87401531095188 110.60418214915194 l -18.003904319382173 10.532761892598606 a41.85856284185575,41.85856284185575 0 0,0 -0.358484712906573,-0.6250483137189938 l 18.182541028441122 -10.221293733021305" fill="#ffe315" stroke="none" /><path d="M 81.69416730710424 110.29060199501025 l -22.65352146218014 12.73465004644058 a46.9875613792977,46.9875613792977 0 0,0 -0.390273293661636,-0.708459390537025 l 22.869371165293295 -12.342820137505733" fill="#d9ff1c" stroke="none" /><path d="M 81.51974371655577 109.97397251340807 l -22.874454885862207 12.345563870516925 a46.99333825437507,46.99333825437507 0 0,0 -0.3780669822960085,-0.7151602522417632 l 23.0835743763831 -11.949988603189036" fill="#d9ff1c" stroke="none" /><path d="M 81.18737489456691 109.33194174019688 l -27.943490210408804 13.861277796153358 a52.19252582400705,52.19252582400705 0 0,0 -0.392305725255795,-0.8082659911444842 l 28.177949192279318 -13.378222849043588" fill="#99ff23" stroke="none" /><path d="M 81.02952815118164 109.00673069616217 l -23.459836782034063 11.138174830630883 a46.96965306655785,46.96965306655785 0 0,0 -0.34047492547415137,-0.7333526993999915 l 23.648086324348043 -10.732702063952065" fill="#d9ff1c" stroke="none" /><path d="M 80.87730276802145 108.67885076344099 l -23.620995011004467 10.720406650672116 a46.93990215990941,46.93990215990941 0 0,0 -0.3275933877798179,-0.7386366073148649 l 23.802029483515565 -10.312221706864555" fill="#d9ff1c" stroke="none" /><path d="M 80.45479744820244 107.68017299344265 l -51.635444491963206 20.289845819741103 a76.47879749301961,76.47879749301961 0 0,0 -0.4709117145550968,-1.229401889075371 l 51.977050486111814 -19.398020363832575" fill="#43ffdf" stroke="none" /><path d="M 80.20201598880116 107.00284435728193 l -24.536280398673973 8.678850969944627 a47.0259775985622,47.0259775985622 0 0,0 -0.2633660071166311,-0.7654648955761807 l 24.682037236733834 -8.25521337127915" fill="#d8ff1c" stroke="none" /><path d="M 80.0844068197444 106.66101706037122 l -29.604529125485794 9.901601814432464 a52.21649985557812,52.21649985557812 0 0,0 -0.27776131707985596,-0.8548614328407919 l 29.7705826935819 -9.39054148161387" fill="#99ff23" stroke="none" /><path d="M 79.97269907076064 106.31721596034903 l -24.91964758213995 7.860409946820855 a47.12996134995484,47.12996134995484 0 0,0 -0.23738514874505032,-0.7757884011116126 l 25.051259503391133 -7.4302945731571945" fill="#d7ff1c" stroke="none" /><path d="M 79.76711848015287 105.62410040840567 l -25.11811995110326 6.982042006068641 a47.070459536657935,47.070459536657935 0 0,0 -0.21027477888621562,-0.7825106763733908 l 25.23458280633125 -6.54864039651971" fill="#d8ff1c" stroke="none" /><path d="M 79.67330655649465 105.27499134158121 l -30.39959513503524 7.889015573072542 a52.40655904562357,52.40655904562357 0 0,0 -0.21908109242541451,-0.8751200614417607 l 30.530887541755714 -7.364567672233389" fill="#97ff23" stroke="none" /><path d="M 79.50377843672027 104.57218783832718 l -30.282133438129062 6.755176889406111 a52.02644066553269,52.02644066553269 0 0,0 -0.18745860212873225,-0.875744180963368 l 30.393926078982233 -6.232918889026579" fill="#9bff22" stroke="none" /><path d="M 79.4281124754447 104.21870165774334 l -25.713562527253952 5.273111119761398 a47.24867613279477,47.24867613279477 0 0,0 -0.15652826501759814,-0.7981342510628997 l 25.800520725247214 -4.829713141630544" fill="#d5ff1c" stroke="none" /><path d="M 79.35854240842038 103.8639653848113 l -25.44733395460394 4.763598554030121 a46.88935450298243,46.88935450298243 0 0,0 -0.1416807790301532,-0.7946210503730762 l 25.525561175973284 -4.324858752923832" fill="#daff1c" stroke="none" /><path d="M 79.23777060512086 103.15116336523772 l -20.526441001762265 3.1153768544441647 a41.761511340555955,41.761511340555955 0 0,0 -0.10175082660574324,-0.7116450442933238 l 20.577025879384607 -2.76158633817044" fill="#ffe215" stroke="none" /><path d="M 79.18660465613746 102.79330883721812 l -44.77373949658801 6.0089610630492905 a66.17516310502451,66.17516310502451 0 0,0 -0.14179916500332204,-1.1302788625193911 l 44.87054017083818 -5.23736444624249" fill="#35ff67" stroke="none" /><path d="M 79.1416061653843 102.43462659150553 l -15.225859574210702 1.7771877783026553 a36.32922686155215,36.32922686155215 0 0,0 -0.06715318928626755,-0.6217551312916199 l 15.25419506499802 -1.5148363251262533" fill="#ff970d" stroke="none" /><path d="M 79.07016306316243 101.71520430193888 l -29.161824280270725 2.38981730287019 a50.25958342311942,50.25958342311942 0 0,0 -0.06323957876836857,-0.8628538082150785 l 29.198640417703427 -1.8874903581583509" fill="#b0ff20" stroke="none" /><path d="M 79.04373962182676 101.35467743843564 l -26.066601337566745 1.6850256721125985 a47.121007193584916,47.121007193584916 0 0,0 -0.045356547868439206,-0.8098716309964811 l 26.091744236322715 -1.23608232478068" fill="#d7ff1c" stroke="none" /><path d="M 79.0235259727143 100.99374915477108 l -31.22596060297386 1.4793130587989278 a52.260981793673864,52.260981793673864 0 0,0 -0.034835346676840816,-0.8989455103458222 l 31.2467980825019 -0.9415903014391088" fill="#98ff23" stroke="none" /><line stroke="#e1ed5e" stroke-width="0.3" x1="15.007084014347285" x2="10.007500721073583" y1="101.09737516637583" y2="101.16192664675087" /><path d="M 14.007167355692545 101.11028546245083 a86.0,86.0 0 0,1 10.666146001902534,-42.60595125391555" fill="none" id="id22" stroke="none" /><text fill="#e1ed5e" style="font-size:6.75px; font-family:Arial;" text-anchor="middle"><textPath startOffset="22.20632615414155" xlink:href="#id22">October</textPath></text><path d="M 79.00175016825051 100.2711162175752 l -29.18898344530215 0.3768698272457997 a50.191416297206466,50.191416297206466 0 0,0 -0.003718234398916511,-0.8639867269987483 l 29.19114597699057 0.12562637795662404" fill="#b1ff20" stroke="none" /><path d="M 79.00019446554 99.90962569577889 l -23.172275570723894 -0.0997236987974844 a44.172490154095854,44.172490154095854 0 0,0 0.009816795101997393,-0.7603215991374498 l 23.16712576850418 0.49858155599540616" fill="#fdff18" stroke="none" /><path d="M 79.01574976396665 99.18683210126434 l -23.122496181885882 -0.8960278028642851 a44.139850809908715,44.139850809908715 0 0,0 0.035955884784248264,-0.7589718991797816 l 23.103646688868135 1.2939108086670759" fill="#fdff18" stroke="none" /><path d="M 79.05617556472873 98.46500227214037 l -18.32794689922008 -1.3432769613583924 a39.37710615237196,39.37710615237196 0 0,0 0.05536330404015425,-0.675572539396742 l 18.30210911136043 1.6585634179629127" fill="#ffc112" stroke="none" /><path d="M 79.08570108090925 98.10471618934814 l -30.890904027214052 -2.7993780965680237 a52.017486509162765,52.017486509162765 0 0,0 0.08848638728062795,-0.8910458442189539 l 30.838140514251197 3.3306994714914078" fill="#9bff22" stroke="none" /><path d="M 79.12142395522702 97.74499172005258 l -26.046648457816115 -2.813190315819441 a47.19812847586779,47.19812847586779 0 0,0 0.094193185872137,-0.806989693743237 l 25.994364918940388 3.26112374788754" fill="#d6ff1c" stroke="none" /><path d="M 79.26566170972629 96.67025291283419 l -28.992101676452844 -4.655869155625197 a50.363567174512056,50.363567174512056 0 0,0 0.14482676518428494,-0.8547757662907884 l 28.907663049748336 5.154230710231814" fill="#afff20" stroke="none" /><path d="M 79.32604984820605 96.31383870115002 l -17.060409332500825 -3.0418676722284097 a38.32946985709111,38.32946985709111 0 0,0 0.12140271145062834,-0.6485381390219992 l 17.005520897140332 3.335083888712982" fill="#ffb310" stroke="none" /><path d="M 79.3925641242962 95.95851677861259 l -29.627576552026603 -5.8104925934312615 a51.19197106060676,51.19197106060676 0 0,0 0.1770284277104993,-0.8632534838828314 l 29.52316882840111 6.319621733477495" fill="#a5ff21" stroke="none" /><path d="M 79.54389044137918 95.25157060432595 l -59.036956248941365 -13.704112098160671 a81.60664065544609,81.60664065544609 0 0,0 0.32940792421352916,-1.365608510523259 l 58.79231552446702 14.718305840343326" fill="#4aeaff" stroke="none" /><path d="M 79.71946130924805 94.55025226153421 l -31.087354159911953 -8.353734612834565 a53.19019214986865,53.19019214986865 0 0,0 0.2452149655345043,-0.8821686997511308 l 30.938952423811088 8.887614616004637" fill="#8eff24" stroke="none" /><path d="M 79.81627453868168 94.20196356495316 l -24.994353848270986 -7.179951717063391 a47.00518084828368,47.00518084828368 0 0,0 0.23008835220958546,-0.7757435406037859 l 24.867059598949695 7.609124644413716" fill="#d8ff1c" stroke="none" /><path d="M 80.02781315780177 93.51064311812611 l -24.622239302736716 -8.000250514819136 a46.88935450298243,46.88935450298243 0 0,0 0.25602191812412833,-0.7654729481063194 l 24.480880090840817 8.422896565847777" fill="#daff1c" stroke="none" /><path d="M 80.14247586403 93.16781622104843 l -24.613074822172244 -8.468379511902942 a47.02915487985476,47.02915487985476 0 0,0 0.2699628444230858,-0.763221314771668 l 24.46365889693935 8.89079845310122" fill="#d8ff1c" stroke="none" /><path d="M 80.2630227832202 92.82701384747504 l -24.477503946084816 -8.895830142843307 a47.04388591130205,47.04388591130205 0 0,0 0.2831491103924527,-0.7586988429709209 l 24.320750247190738 9.31585212284357" fill="#d8ff1c" stroke="none" /><path d="M 80.52162464483688 92.15188598940014 l -14.393177224515439 -5.799215477322869 a36.517552989074375,36.517552989074375 0 0,0 0.23993477907029986,-0.5810210989746877 l 14.29122075855894 6.046111146750867" fill="#ff990e" stroke="none" /><path d="M 80.65960295795068 91.81776055985345 l -28.74950006999792 -12.162898871506673 a52.21649985557812,52.21649985557812 0 0,0 0.3573331489878522,-0.8247741747042371 l 28.535876211167388 12.65597219079751" fill="#99ff23" stroke="none" /><path d="M 80.803312248108 91.48605970444005 l -23.785793739537755 -10.549258830392167 a47.020200723484834,47.020200723484834 0 0,0 0.3345099544765129,-0.7370483437142543 l 23.60068146809789 10.957129182948492" fill="#d8ff1c" stroke="none" /><path d="M 80.95270993114464 91.15688171328213 l -14.43014891948439 -6.699510183792937 a36.90951396307385,36.90951396307385 0 0,0 0.2725008432980029,-0.5739562723649259 l 14.312689882344635 6.946908871798395" fill="#ff9f0e" stroke="none" /><path d="M 81.10775173730289 90.83032412892265 l -6.214638548042017 -3.016381128865839 a27.907987217517686,27.907987217517686 0 0,0 0.2134827954818268,-0.43036828879460237 l 6.161795739606777 3.1229090061594027" fill="#ff1a02" stroke="none" /><path d="M 81.43458229118936 90.18545643968196 l -25.911113170537238 -13.697819941206157 a50.30897570503093,50.30897570503093 0 0,0 0.411316365008023,-0.7621067562302362 l 25.671488706310743 14.141807680768867" fill="#b0ff20" stroke="none" /><path d="M 81.6062741919709 89.86733742301443 l -27.232979080759844 -15.001995292927194 a52.09171935390697,52.09171935390697 0 0,0 0.4394119064516105,-0.7816647506793054 l 26.970709533015803 15.468543553541286" fill="#9aff22" stroke="none" /><line stroke="#e1ed5e" stroke-width="0.3" x1="26.266209847984243" x2="21.928928074336255" y1="57.711370442889674" y2="55.22380399835377" /><path d="M 25.398753493254645 57.213857153982495 a86.0,86.0 0 0,1 29.58750427330803,-30.492523968695096" fill="none" id="id23" stroke="none" /><text fill="#e1ed5e" style="font-size:6.75px; font-family:Arial;" text-anchor="middle"><textPath startOffset="21.46611528233685" xlink:href="#id23">November</textPath></text><path d="M 81.96595687620814 89.24020034530311 l -22.324622534182943 -13.319723380146467 a46.996226691913755,46.996226691913755 0 0,0 0.4204689778842952,-0.6911404447680405 l 22.09203775801243 13.70203159812158" fill="#d9ff1c" stroke="none" /><path d="M 82.15384107792192 88.93136811851018 l -27.25488961703927 -16.9041608033892 a53.07147736702871,53.07147736702871 0 0,0 0.4881878501793773,-0.7721959404179712 l 26.959874170613933 17.370804391521386" fill="#8fff24" stroke="none" /><path d="M 82.7489923806493 88.02491185347247 l -23.81871475331297 -16.534176727623166 a49.995002544575925,49.995002544575925 0 0,0 0.4968250525679043,-0.7027238031906539 l 23.53057708094119 16.941727031145607" fill="#b4ff20" stroke="none" /><path d="M 82.95767976084542 87.72973835380427 l -24.800833969075843 -17.85629641821093 a51.56024684678903,51.56024684678903 0 0,0 0.5247786885326123,-0.7157975414003374 l 24.489792668029597 18.28055640328277" fill="#a1ff22" stroke="none" /><path d="M 83.17141714833178 87.43820079747576 l -20.849030216701284 -15.562886872770726 a47.017023442192276,47.017023442192276 0 0,0 0.4897025831359304,-0.6443911971153141 l 20.578051693341244 15.919462845767066" fill="#d8ff1c" stroke="none" /><path d="M 83.39014120810768 87.1503855733568 l -20.481870154335144 -15.845055488866912 a46.895420221813666,46.895420221813666 0 0,0 0.49942711292569525,-0.6342217157982446 l 20.206088960815478 16.195269598618204" fill="#daff1c" stroke="none" /><path d="M 83.84228863543731 86.58626213691792 l -22.576984866923645 -18.74286214865067 a50.3430592679874,50.3430592679874 0 0,0 0.5592619719909584,-0.6619897745307481 l 22.25101228144556 19.128710872810533" fill="#afff20" stroke="none" /><path d="M 84.07557802195018 86.31012108654704 l -21.98532659123222 -18.90030666868486 a49.99269179454498,49.99269179454498 0 0,0 0.5666032099403278,-0.6477254162303077 l 21.656731517714046 19.275947641118112" fill="#b4ff20" stroke="none" /><line stroke="#e1ed5e" stroke-width="0.3" x1="56.762969772571076" x2="54.21961505331055" y1="26.818313649435495" y2="22.513508569990535" /><path d="M 56.25429882871897 25.957352633546506 a86.0,86.0 0 0,1 42.265352541879196,-11.944610805530505" fill="none" id="id24" stroke="none" /><text fill="#e1ed5e" style="font-size:6.75px; font-family:Arial;" text-anchor="middle"><textPath startOffset="22.20632615414155" xlink:href="#id24">December</textPath></text></svg>