<?xml version="1.0" encoding="utf-8" ?>
<svg baseProfile="full" height="200mm" version="1.1" viewBox="0,0,200,200" width="200mm" xmlns="http://www.w3.org/2000/svg" xmlns:ev="http://www.w3.org/2001/xml-events" xmlns:xlink="http://www.w3.org/1999/xlink"><defs /><rect fill="#1a1a1a" height="200" width="200" x="0" y="0" /><text alignment-baseline="middle" fill="#e1ed5e" style="dominant-baseline: central; font-size:9.0px; font-family:Arial;" text-anchor="middle" x="100.0" y="100.0">2024</text><line stroke="#e1ed5e" stroke-width="0.3" x1="100.0" x2="100.0" y1="15.0" y2="10.0" /><path d="M 100.0 14.0 a86.0,86.0 0 0,1 42.35913384403234,11.155469271406648" fill="none" id="id25" stroke="none" /><text fill="#e1ed5e" style="font-size:6.75px; font-family:Arial;" text-anchor="middle"><textPath startOffset="22.145653131862478" xlink:href="#id25">January</textPath></text><path d="M 100.36049292484886 79.00309439819443 l 0.7243334276111136 -42.18879083454815 a63.19500836586727,63.19500836586727 0 0,0 1.0845066491546038,0.027933044272297352 l -1.4484533908364587 42.170140072925804" fill="#ff0100" stroke="none" /><path d="M 100.72087961077811 79.0123766808444 l 2.0431891210336275 -59.48522194401387 a80.5203011712214,80.5203011712214 0 0,0 1.3810161062160125,0.05930677374749301 l -3.0640309878504763 59.44138260184055" fill="#40ffc8" stroke="none" /><path d="M 101.44090949804482 79.04949213459386 l 4.322728494134444 -62.8515235962184 a84.0,84.0 0 0,0 1.437724020899066,0.1112889320197854 l -5.401021509808744 62.76805689720356" fill="#4dd2ff" stroke="none" /><path d="M 101.80034050326958 79.07731436759882 l 5.034075365402795 -58.50358647647796 a79.71977133296153,79.71977133296153 0 0,0 1.3624505113450867,0.12902547995883543 l -6.037625440132895 58.408549241013944" fill="#3dffae" stroke="none" /><path d="M 102.15924093988457 79.11130261209362 l 4.358945067488111 -42.16883941174897 a63.393530395984385,63.393530395984385 0 0,0 1.0815060005552304,0.12118500316785809 l -5.082186969644138 42.08779864807414" fill="#ff0901" stroke="none" /><path d="M 102.87502721639298 79.19773525538626 l 8.040535541127594 -58.1773097872997 a79.7303123257111,79.7303123257111 0 0,0 1.3541809870780732,0.19901797131707913 l -9.03804163381335 58.03071074268374" fill="#3dffaf" stroke="none" /><path d="M 103.23170211078529 79.25015418208739 l 9.048495550289957 -58.09783238559723 a79.79824316787507,79.79824316787507 0 0,0 1.351715729126418,0.22242430883959147 l -10.044488782469445 57.93394207826197" fill="#3dffb1" stroke="none" /><path d="M 103.94208987418118 79.37332000966035 l 11.029606897552137 -57.71156395623949 a79.75607919687673,79.75607919687673 0 0,0 1.3425740141127265,0.2685524038007591 l -12.01867739719582 57.513722155775866" fill="#3dffb0" stroke="none" /><path d="M 104.64783097203109 79.52079915486377 l 13.078731949964096 -57.627306159537284 a80.09280535415505,80.09280535415505 0 0,0 1.3381900055020473,0.31580919759600556 l -14.066054109206028 57.39430081829505" fill="#3fffba" stroke="none" /><path d="M 105.3480935250658 79.69241777938227 l 13.450171853083786 -51.072493311450934 a73.81388733965422,73.81388733965422 0 0,0 1.222563946954426,0.3332152402428185 l -14.324917200972905 50.83407757706397" fill="#70ff27" stroke="none" /><path d="M 105.69591212413111 79.78721728523813 l 11.487126737790348 -40.76376034388116 a63.351366424986054,63.351366424986054 0 0,0 1.0442114852358624,0.3039547448509154 l -12.185198235407816 40.56056190472773" fill="#ff0801" stroke="none" /><path d="M 106.04205211174951 79.88797359093562 l 12.141896300306879 -40.41642384596784 a63.200864472950364,63.200864472950364 0 0,0 1.0363718900890981,0.3210706607401916 l -12.833908823267608 40.20203659742101" fill="#ff0100" stroke="none" /><path d="M 106.72888874123014 80.10723608172694 l 13.514445759087469 -39.953057527101556 a63.17685443390965,63.17685443390965 0 0,0 1.0243502035761107,0.35632217450182163 l -14.198301734708599 39.71517692003115" fill="#ff0000" stroke="none" /><path d="M 107.06938296918511 80.22567764915836 l 17.0863792723149 -47.79364380346199 a71.75605131065254,71.75605131065254 0 0,0 1.1563345808565755,0.42462207499339905 l -17.9043030048256 47.49329087945987" fill="#b3ff20" stroke="none" /><path d="M 107.74402155503746 80.48000691201159 l 19.796707863731026 -49.90063598332608 a74.68410485220302,74.68410485220302 0 0,0 1.1876392207323159,0.48300253189987524 l -20.650401545653782 49.55344619484691" fill="#56ff2b" stroke="none" /><line stroke="#e1ed5e" stroke-width="0.3" x1="143.13028292997686" x2="145.6673583964461" y1="26.7553504044142" y2="22.446841604673864" /><path d="M 143.63769802327073 25.89364864446614 a86.0,86.0 0 0,1 29.32050498858742,28.57503671076993" fill="none" id="id26" stroke="none" /><text fill="#e1ed5e" style="font-size:6.75px; font-family:Arial;" text-anchor="middle"><textPath startOffset="20.669276256404974" xlink:href="#id26">February</textPath></text><line stroke="#e1ed5e" stroke-width="0.3" x1="172.87174338648825" x2="177.1583165268699" y1="56.24261187166439" y2="53.66864786411523" /><path d="M 173.72905801456457 55.72781907015455 a86.0,86.0 0 0,1 12.242430191666344,42.057860355516425" fill="none" id="id27" stroke="none" /><text fill="#e1ed5e" style="font-size:6.75px; font-family:Arial;" text-anchor="middle"><textPath startOffset="22.145653131862474" xlink:href="#id27">March</textPath></text><line stroke="#e1ed5e" stroke-width="0.3" x1="184.99686870605535" x2="189.99668451229388" y1="99.2704041080226" y2="99.22748670261217" /><path d="M 185.99683186730306 99.26182062694052 a86.0,86.0 0 0,1 -10.086455211305974,41.156179273409016" fill="none" id="id28" stroke="none" /><text fill="#e1ed5e" style="font-size:6.75px; font-family:Arial;" text-anchor="middle"><textPath startOffset="21.40746469413373" xlink:href="#id28">April</textPath></text><line stroke="#e1ed5e" stroke-width="0.3" x1="174.33088141563837" x2="178.70328620479359" y1="141.23008692659167" y2="143.65538615756765" /><path d="M 175.20536237346943 141.71514677278685 a86.0,86.0 0 0,1 -30.301960400862466,31.631185727798858" fill="none" id="id29" stroke="none" /><text fill="#e1ed5e" style="font-size:6.75px; font-family:Arial;" text-anchor="middle"><textPath startOffset="22.145653131862474" xlink:href="#id29">May</textPath></text><line stroke="#e1ed5e" stroke-width="0.3" x1="143.1302829299769" x2="145.66735839644613" y1="173.24464959558577" y2="177.55315839532614" /><path d="M 143.63769802327073 174.10635135553383 a86.0,86.0 0 0,1 -40.68552437913181,11.842963189579606" fill="none" id="id30" stroke="none" /><text fill="#e1ed5e" style="font-size:6.75px; font-family:Arial;" text-anchor="middle"><textPath startOffset="21.407464694133747" xlink:href="#id30">June</textPath></text><line stroke="#e1ed5e" stroke-width="0.3" x1="101.45913802915013" x2="101.54496967792366" y1="184.9874750549273" y2="189.98673829345242" /><path d="M 101.47630435890484 185.9873277026323 a86.0,86.0 0 0,1 -42.54439059252881,-10.42667462771756" fill="none" id="id31" stroke="none" /><text fill="#e1ed5e" style="font-size:6.75px; font-family:Arial;" text-anchor="middle"><textPath startOffset="22.145653131862474" xlink:href="#id31">July</textPath></text><line stroke="#e1ed5e" stroke-width="0.3" x1="58.13341422392154" x2="55.67067388415222" y1="173.97424548756322" y2="178.32567169271397" /><path d="M 57.64086615596768 174.84453072859336 a86.0,86.0 0 0,1 -31.369924170532247,-30.572349798747897" fill="none" id="id32" stroke="none" /><text fill="#e1ed5e" style="font-size:6.75px; font-family:Arial;" text-anchor="middle"><textPath startOffset="22.145653131862474" xlink:href="#id32">August</textPath></text><line stroke="#e1ed5e" stroke-width="0.3" x1="26.387840678322732" x2="22.057713659400548" y1="142.50000000000003" y2="145.00000000000006" /><path d="M 25.521815274538298 143.00000000000003 a86.0,86.0 0 0,1 -11.493303480769221,-40.785679425670985" fill="none" id="id33" stroke="none" /><text fill="#e1ed5e" style="font-size:6.75px; font-family:Arial;" text-anchor="middle"><textPath startOffset="21.40746469413373" xlink:href="#id33">September</textPath></text><line stroke="#e1ed5e" stroke-width="0.3" x1="15.003131293944662" x2="10.003315487706104" y1="100.72959589197737" y2="100.7725132973878" /><path d="M 14.003168132696942 100.73817937305945 a86.0,86.0 0 0,1 10.791469493833604,-42.45332614584628" fill="none" id="id34" stroke="none" /><text fill="#e1ed5e" style="font-size:6.75px; font-family:Arial;" text-anchor="middle"><textPath startOffset="22.145653131862435" xlink:href="#id34">October</textPath></text><line stroke="#e1ed5e" stroke-width="0.3" x1="26.387840678322718" x2="22.05771365940052" y1="57.49999999999999" y2="54.99999999999999" /><path d="M 25.521815274538284 56.99999999999999 a86.0,86.0 0 0,1 29.574782752854787,-30.34633250058573" fill="none" id="id35" stroke="none" /><text fill="#e1ed5e" style="font-size:6.75px; font-family:Arial;" text-anchor="middle"><textPath startOffset="21.40746469413373" xlink:href="#id35">November</textPath></text><line stroke="#e1ed5e" stroke-width="0.3" x1="56.869717070023135" x2="54.33264160355391" y1="26.7553504044142" y2="22.446841604673864" /><path d="M 56.362301976729285 25.89364864446614 a86.0,86.0 0 0,1 42.16139366436587,-11.88097634709845" fill="none" id="id36" stroke="none" /><text fill="#e1ed5e" style="font-size:6.75px; font-family:Arial;" text-anchor="middle"><textPath startOffset="22.145653131862474" xlink:href="#id36">December</textPath></text></svg>